{"glyphs":{"0":{"ha":525,"x_min":0,"x_max":0,"o":"m 302 947 b 225 966 277 957 251 967 b 91 839 166 963 120 902 b 36 632 63 775 45 704 b 94 147 15 468 35 297 b 217 -3 120 81 159 14 b 359 56 268 -18 323 10 b 433 224 396 102 417 163 b 464 629 466 355 476 494 b 420 833 457 699 445 769 b 397 881 414 850 406 866 b 302 947 373 915 336 932 z m 237 149 b 196 582 189 283 188 436 b 251 836 201 670 211 762 b 225 745 242 806 232 776 b 214 677 220 723 217 700 b 237 149 190 502 198 320 z m 243 186 b 219 581 210 313 211 449 b 272 848 225 673 236 767 b 286 863 275 855 279 863 b 299 851 291 863 296 856 b 386 530 351 757 374 643 b 361 149 400 403 400 269 b 312 61 350 116 336 82 b 243 186 276 87 256 137 z m 216 166 b 170 449 179 252 172 352 b 214 798 168 568 174 690 b 181 574 198 725 187 650 b 216 166 172 437 183 297 z m 142 848 b 95 305 77 680 60 486 b 80 342 84 311 81 327 b 73 603 71 428 66 516 b 142 848 80 690 101 776 z m 154 758 b 160 761 155 762 160 765 b 129 485 138 672 127 578 b 152 247 131 405 141 326 b 130 354 139 281 134 317 b 154 758 115 489 118 629 z m 410 308 b 401 276 409 297 407 284 b 411 382 404 311 407 347 b 414 365 414 378 414 371 b 410 308 412 346 411 327 z m 156 218 b 161 218 157 221 161 220 b 159 210 162 215 160 212 b 157 218 157 212 156 215 z m 156 239 b 152 239 155 239 153 239 b 156 241 151 242 155 243 z "},"1":{"ha":353,"x_min":0,"x_max":0,"o":"m 231 13 b 243 74 240 31 242 53 b 293 740 260 296 277 518 b 272 894 297 793 300 852 b 210 947 256 918 233 933 b 166 958 196 955 181 964 b 119 966 157 976 134 977 b 87 916 104 955 95 935 b 32 753 65 864 47 809 b 29 720 29 743 26 731 b 69 695 35 703 54 698 b 104 663 85 691 104 682 b 143 64 110 463 123 263 b 171 12 145 42 152 13 b 175 26 166 15 169 26 b 187 6 172 17 179 6 b 200 25 195 6 202 16 b 198 136 193 61 192 99 b 208 8 197 93 200 50 b 221 45 216 18 220 31 b 231 13 224 34 228 24 z m 165 105 b 159 161 163 123 161 142 b 154 216 157 179 155 198 b 155 278 153 237 154 258 b 163 217 161 259 162 237 b 168 97 165 177 166 137 b 165 105 166 98 165 102 z m 243 183 b 239 226 238 197 239 212 b 244 349 240 267 242 308 b 250 462 246 387 248 424 b 254 442 254 457 254 449 b 249 326 252 404 251 365 b 243 183 247 279 245 231 z m 230 258 b 227 243 230 253 229 247 b 233 435 225 307 227 372 b 235 382 237 418 236 400 b 230 258 234 340 232 299 z m 190 298 b 198 331 190 310 190 323 b 193 194 201 286 200 239 b 190 212 190 200 190 206 b 190 298 190 241 190 269 z m 58 743 b 58 764 52 747 55 757 b 95 846 70 791 83 819 b 104 851 97 851 102 855 b 103 845 105 849 104 847 b 58 743 89 810 74 777 z m 190 144 b 194 143 191 146 195 145 b 190 142 193 142 191 142 z "},"2":{"ha":478,"x_min":0,"x_max":0,"o":"m 222 930 b 159 983 205 954 184 976 b 90 953 133 991 104 981 b 37 758 61 895 48 826 b 39 700 34 739 31 717 b 76 698 47 683 71 679 b 125 829 88 744 104 788 b 30 79 144 574 111 313 b 40 31 24 63 30 43 b 79 15 51 20 65 16 b 145 42 102 14 126 24 b 313 79 191 87 256 72 b 380 94 336 81 358 88 b 421 130 397 99 417 108 b 342 168 405 161 371 167 b 183 158 289 170 236 167 b 301 542 236 279 285 405 b 222 930 318 679 296 829 z m 224 293 b 229 322 223 303 226 313 b 261 440 239 362 250 401 b 263 427 264 438 264 432 b 224 293 255 381 242 335 z m 174 322 b 189 388 174 346 179 369 b 191 377 192 387 192 381 b 174 322 188 358 182 339 z m 68 97 b 70 117 64 102 67 111 b 79 143 74 125 77 134 b 140 377 103 220 123 298 b 136 321 143 359 139 339 b 68 97 119 243 96 168 z m 217 329 b 216 348 213 333 214 342 b 242 435 225 377 233 406 b 245 428 244 437 246 431 b 217 329 237 394 228 361 z m 99 920 b 109 932 102 924 106 928 b 99 909 111 923 106 912 b 99 920 96 912 96 918 z "},"3":{"ha":550,"x_min":0,"x_max":0,"o":"m 13 747 b 110 720 43 727 77 717 b 68 714 99 709 82 706 b 108 706 75 698 94 701 b 306 782 174 732 240 757 b 219 589 277 718 248 653 b 210 499 207 561 194 525 b 238 478 217 488 227 482 b 292 470 255 471 274 468 b 309 435 305 472 310 450 b 304 337 307 402 306 370 b 293 241 302 305 301 272 b 90 100 268 143 174 77 b 65 62 74 105 61 81 b 98 23 69 44 83 31 b 238 11 142 0 191 4 b 323 30 267 15 296 19 b 474 191 389 55 446 115 b 483 368 495 246 502 311 b 447 440 475 394 461 418 b 287 553 407 499 351 551 b 414 738 329 615 372 676 b 445 825 431 763 450 793 b 432 861 443 838 438 850 b 235 981 389 937 312 980 b 22 894 159 983 84 948 b -18 842 6 880 -10 864 b -11 775 -27 820 -26 791 b 5 790 -5 780 0 785 b 3 756 -3 782 -4 766 b 13 747 6 752 10 749 z m 327 194 b 322 183 326 190 325 186 b 314 182 320 180 316 180 b 327 225 318 197 323 211 b 329 228 328 226 328 228 b 335 226 331 230 335 229 b 334 223 335 225 335 224 b 327 194 332 213 329 203 z m 460 220 b 446 170 464 202 458 181 b 445 176 444 171 444 174 b 460 220 448 191 453 206 z m 31 824 b 37 818 33 827 38 822 b 30 809 36 814 33 811 b 30 825 27 813 27 820 z m 437 224 b 437 213 440 221 440 215 b 437 224 434 215 434 221 z m 249 605 b 245 605 249 603 245 603 b 249 605 245 608 249 608 z "},"4":{"ha":571,"x_min":0,"x_max":0,"o":"m 325 360 b 182 274 278 331 230 303 b 211 507 176 353 196 430 b 241 755 227 588 237 672 b 236 856 242 789 243 823 b 189 938 229 888 213 920 b 137 948 174 949 155 954 b 120 967 139 959 129 968 b 97 950 111 966 103 958 b 47 817 70 913 57 864 b 6 482 24 707 10 595 b 16 344 5 436 5 389 b 84 234 27 299 49 257 b 206 226 120 210 166 211 b 317 297 247 242 282 269 b 367 335 334 310 350 323 b 414 28 378 232 394 130 b 443 -5 417 11 429 -12 b 401 314 427 101 413 207 b 398 433 396 353 392 394 b 452 -7 411 286 429 139 b 468 -6 457 -7 463 -7 b 473 20 474 0 476 11 b 482 4 477 16 480 10 b 494 36 490 11 495 24 b 505 19 498 30 502 24 b 515 69 514 33 515 52 b 506 599 515 246 512 422 b 467 734 504 648 499 704 b 410 752 451 749 430 756 b 378 707 392 749 383 727 b 364 412 352 613 358 511 b 325 360 366 388 344 371 z m 145 373 b 165 513 149 420 156 467 b 170 517 166 516 169 520 b 149 357 164 463 157 410 b 145 373 145 360 145 367 z m 168 401 b 187 514 173 439 180 477 b 193 534 189 521 190 528 b 195 523 196 532 195 527 b 166 324 184 457 175 390 b 168 401 161 349 164 376 z m 495 454 b 503 346 501 419 503 382 b 500 330 503 340 502 334 b 497 349 499 336 498 343 b 495 454 492 384 492 419 z m 478 388 b 478 438 474 404 474 422 b 478 388 481 422 481 404 z m 441 394 b 441 427 438 404 438 417 b 441 394 445 417 445 404 z m 476 445 b 478 453 475 448 476 452 b 480 446 479 451 481 449 b 475 445 480 443 476 443 z "},"5":{"ha":747,"x_min":0,"x_max":0,"o":"m 443 963 b 241 964 376 973 307 978 b 83 857 176 950 113 913 b 64 802 74 840 69 821 b 46 610 49 739 46 674 b 76 454 46 557 48 501 b 252 370 110 398 182 363 b 241 377 248 372 245 375 b 325 434 277 377 303 408 b 391 496 345 457 367 477 b 460 536 411 513 434 528 b 538 529 486 543 516 542 b 575 467 560 515 573 491 b 559 397 577 443 570 419 b 398 249 526 333 462 288 b 9 75 278 176 146 117 b -3 26 -11 69 -15 42 b 53 -1 10 10 32 3 b 369 45 159 -21 269 8 b 565 148 439 72 507 103 b 685 321 622 194 669 253 b 632 515 701 389 685 465 b 435 565 583 563 504 583 b 268 477 373 549 324 506 b 271 835 269 596 270 715 b 359 842 299 844 330 847 b 282 832 333 839 308 836 b 539 843 368 834 453 837 b 480 852 520 846 500 849 b 576 853 512 852 544 852 b 615 873 593 853 615 858 b 610 888 616 878 613 883 b 443 963 575 937 506 954 z m 616 354 b 621 356 615 357 620 359 b 614 350 618 355 615 353 b 616 354 611 350 613 355 z m 500 119 b 522 124 507 123 515 126 b 177 3 415 66 298 25 b 212 13 189 7 200 10 b 500 119 311 42 410 72 z m 473 847 b 380 841 442 845 411 843 b 363 842 374 841 368 841 b 401 848 375 844 388 846 b 418 849 406 848 412 849 b 473 847 436 848 455 848 z m 664 323 b 652 271 665 305 661 287 b 646 267 651 269 649 266 b 645 274 643 268 644 272 b 664 323 651 290 658 307 z m 588 393 b 569 342 589 375 582 356 b 567 351 565 343 566 348 b 588 393 574 365 581 379 z m 641 309 b 639 313 639 310 639 312 b 650 339 642 322 646 330 b 641 309 655 328 650 315 z "},"6":{"ha":604,"x_min":0,"x_max":0,"o":"m 236 476 b 282 686 240 547 261 617 b 343 884 303 752 323 818 b 343 937 349 902 354 922 b 322 954 338 944 330 950 b 255 976 301 966 279 978 b 202 952 235 975 217 964 b 59 717 127 894 86 805 b 8 372 25 605 8 489 b 41 169 9 303 15 234 b 179 16 67 105 114 46 b 345 1 230 -8 290 -14 b 480 95 400 15 449 50 b 504 139 489 109 497 124 b 547 342 534 203 554 272 b 435 513 539 412 500 481 b 236 476 370 546 279 533 z m 503 256 b 504 235 508 251 506 242 b 489 191 499 220 494 206 b 491 213 485 197 488 206 b 503 256 497 227 500 241 z m 200 554 b 195 520 198 542 197 531 b 185 435 192 491 188 463 b 183 418 184 429 184 423 b 183 474 177 436 180 455 b 200 583 189 510 194 547 b 200 554 202 573 201 563 z m 154 815 b 149 808 155 812 153 808 b 204 900 158 843 177 875 b 218 915 209 905 214 910 b 235 927 222 921 228 929 b 230 916 236 923 233 919 b 194 875 218 902 206 888 b 176 851 188 867 181 860 b 154 815 169 839 166 823 z m 387 486 b 459 445 416 490 443 468 b 497 304 488 404 499 353 b 460 160 495 254 480 206 b 374 49 442 117 417 73 b 323 40 359 41 340 35 b 289 66 308 44 297 55 b 250 194 262 103 255 149 b 231 342 244 243 238 293 b 360 477 256 400 302 449 b 387 486 369 481 377 485 z m 218 501 b 208 451 216 484 214 467 b 224 569 208 491 213 531 b 223 542 225 560 224 551 b 218 501 221 528 220 515 z m 263 890 b 230 836 253 872 242 854 b 264 901 233 861 245 884 b 266 897 266 902 266 899 b 263 890 265 895 264 892 z m 212 315 b 210 328 207 318 206 325 b 212 317 212 325 213 321 z m 226 578 b 230 578 226 581 230 580 b 228 572 231 576 229 574 b 226 578 226 573 225 576 z m 214 289 b 214 286 216 289 216 286 b 214 289 212 286 212 289 z m 74 555 b 74 551 76 555 76 551 b 74 555 72 551 73 555 z m 208 586 b 203 586 206 586 205 586 b 207 587 203 588 207 589 z "},"7":{"ha":492,"x_min":0,"x_max":0,"o":"m 206 667 b 79 49 159 462 90 259 b 99 4 79 32 81 10 b 113 53 105 20 110 36 b 112 6 117 37 116 21 b 193 32 141 -3 173 11 b 233 106 213 53 223 80 b 333 370 266 194 299 282 b 433 719 375 484 419 599 b 419 839 437 760 438 802 b 391 877 412 853 402 866 b 188 970 341 931 266 966 b -26 901 111 974 32 949 b -18 851 -41 888 -35 862 b 41 837 -2 839 20 837 b 218 852 101 835 160 840 b 206 667 232 791 220 728 z m 258 455 b 272 502 263 471 268 486 b 288 555 278 520 283 538 b 287 524 292 545 290 534 b 250 427 278 490 266 458 b 258 455 252 436 255 445 z m 234 572 b 134 173 206 438 170 306 b 138 216 132 187 135 202 b 234 572 164 336 196 455 z m 324 383 b 305 350 320 371 316 358 b 379 587 330 429 354 508 b 381 571 384 584 383 577 b 324 383 363 508 345 446 z m 350 544 b 305 420 337 502 322 461 b 301 426 303 420 300 423 b 353 576 318 476 335 526 b 350 544 356 566 353 555 z "},"8":{"ha":599,"x_min":0,"x_max":0,"o":"m 58 469 b 1 183 22 377 -4 281 b 10 128 2 165 4 146 b 152 20 29 71 88 32 b 340 42 215 8 280 20 b 530 200 422 72 500 124 b 527 344 547 247 545 298 b 437 464 510 391 477 431 b 518 701 481 537 516 617 b 415 924 521 785 487 873 b 206 953 357 965 274 978 b 89 794 138 927 88 862 b 190 609 90 723 140 663 b 104 556 155 603 125 582 b 58 469 83 530 70 500 z m 129 882 b 125 880 130 880 126 878 b 130 889 128 882 130 886 b 129 882 134 888 133 882 z m 474 622 b 476 614 478 621 477 617 b 435 519 465 581 451 550 b 437 533 433 524 435 529 b 474 622 450 563 462 592 z m 162 480 b 179 501 166 489 170 498 b 104 237 139 417 114 328 b 112 329 98 267 104 299 b 162 480 125 380 141 431 z m 328 397 b 349 412 337 393 346 403 b 363 437 352 421 354 432 b 352 392 359 422 355 407 b 386 419 367 395 380 405 b 380 385 384 408 382 396 b 413 415 391 395 402 405 b 450 213 463 360 478 280 b 278 84 423 146 354 95 b 238 89 264 82 249 82 b 222 108 231 93 226 101 b 194 252 197 151 190 202 b 230 395 199 301 214 348 b 278 525 245 439 261 482 b 311 495 295 531 311 512 b 297 446 310 478 300 463 b 305 407 295 433 298 419 b 345 486 334 421 318 470 b 323 422 338 464 331 443 b 328 397 320 413 319 401 z m 367 906 b 397 864 381 894 390 879 b 393 701 418 812 411 754 b 330 545 375 648 347 598 b 201 649 282 575 239 610 b 128 787 163 688 131 735 b 185 902 127 831 148 875 b 319 929 222 930 273 940 b 367 906 337 924 354 917 z m 147 225 b 241 542 150 335 195 440 b 252 546 243 547 252 551 b 152 206 195 440 161 324 b 147 225 148 211 147 219 z m 138 534 b 156 544 142 540 149 547 b 48 234 88 454 65 343 b 48 273 46 247 47 260 b 138 534 57 364 88 454 z m 175 209 b 169 246 166 219 167 233 b 257 527 185 343 214 437 b 255 510 259 522 257 516 b 175 209 221 412 178 313 z m 410 651 b 391 599 405 633 398 616 b 363 527 382 575 372 551 b 360 524 362 526 362 524 b 357 532 356 522 355 528 b 408 662 373 576 390 619 b 410 651 412 660 411 655 z m 486 611 b 488 599 490 608 489 603 b 431 472 475 555 455 513 b 435 489 429 478 432 484 b 486 611 455 529 472 569 z m 405 534 b 405 547 401 537 403 543 b 438 629 416 574 427 602 b 441 621 442 629 442 624 b 405 534 430 591 418 563 z m 481 229 b 474 216 480 224 478 220 b 480 242 473 225 475 234 b 481 229 481 238 482 233 z "},"9":{"ha":542,"x_min":0,"x_max":0,"o":"m 113 32 b 114 45 114 36 113 40 b 122 51 114 49 119 53 b 116 17 118 40 116 28 b 148 23 127 13 139 16 b 157 19 148 19 153 19 b 238 95 194 27 219 62 b 456 589 328 251 401 417 b 473 807 479 659 499 737 b 361 931 454 860 410 902 b 301 957 342 942 322 952 b 218 956 274 963 246 962 b 25 822 139 940 65 892 b 20 593 -15 753 -19 663 b 221 483 58 522 140 476 b 89 66 180 343 136 204 b 87 34 85 55 82 44 b 113 32 92 24 109 22 z m 401 564 b 425 630 409 586 417 608 b 428 622 428 630 428 625 b 372 470 413 570 394 520 b 375 488 370 476 373 483 b 387 523 379 500 383 512 b 401 564 392 537 396 551 z m 239 530 b 194 512 229 517 211 511 b 148 529 177 513 162 520 b 72 754 75 575 44 674 b 269 896 100 834 183 892 b 288 893 276 896 282 896 b 307 847 305 886 307 865 b 248 548 305 745 284 643 b 239 530 245 542 243 536 z m 209 298 b 208 311 206 301 207 307 b 320 638 246 420 283 529 b 299 547 319 607 309 577 b 209 298 270 464 241 380 z m 372 395 b 353 358 367 382 362 369 b 445 626 384 447 414 536 b 446 608 449 621 448 614 b 372 395 424 536 400 465 z m 374 617 b 374 615 374 616 374 615 b 335 504 364 577 351 540 b 335 519 332 509 334 514 b 367 613 346 551 357 582 b 374 617 368 617 373 620 z m 29 787 b 30 797 27 789 28 794 b 60 845 39 814 49 830 b 55 827 62 839 58 832 b 29 787 46 814 38 800 z m 349 341 b 344 345 347 339 344 342 b 350 350 345 348 348 349 b 348 342 353 348 351 343 z "},"\u0000":{"ha":0,"x_min":0,"x_max":0,"o":""},"\n":{"ha":0,"x_min":0,"x_max":0,"o":""},"\r":{"ha":0,"x_min":0,"x_max":0,"o":""}," ":{"ha":333,"x_min":0,"x_max":0,"o":""},"!":{"ha":235,"x_min":0,"x_max":0,"o":"m 74 230 b 132 185 81 193 96 180 b 174 204 147 187 161 196 b 184 223 180 207 182 216 b 190 270 187 239 189 255 b 195 466 194 336 185 401 b 200 541 199 491 199 516 b 195 716 202 599 199 657 b 169 771 194 736 187 756 b 125 792 155 782 140 788 b 94 795 116 794 106 800 b 70 766 80 789 74 777 b 43 629 52 722 43 676 b 48 417 43 559 38 489 b 48 404 48 411 47 408 b 64 294 53 368 58 331 b 74 230 67 273 70 251 z m 180 333 b 178 328 180 331 179 330 b 175 330 177 329 175 330 b 175 377 175 346 175 362 b 178 379 175 378 177 379 b 180 375 179 378 180 376 b 180 351 180 367 180 359 b 180 333 180 341 180 337 z m 178 448 b 180 425 179 441 179 433 b 180 415 180 422 180 418 b 176 413 180 414 178 414 b 175 420 176 415 175 418 b 178 448 176 433 177 441 z m 164 439 b 161 434 164 437 162 436 b 159 441 160 436 159 439 b 164 439 164 444 165 443 z m 164 325 b 159 330 161 325 160 328 b 163 331 159 331 162 331 b 164 325 163 329 164 327 z m 163 405 b 162 381 163 397 162 389 b 159 404 161 388 160 396 b 163 405 162 406 163 405 z m 162 311 b 164 277 163 300 164 288 b 164 267 164 274 164 270 b 161 265 164 266 162 265 b 159 272 160 267 159 269 b 162 311 160 288 161 299 z m 138 240 b 135 242 135 239 135 241 b 138 240 136 241 137 241 z m 131 268 b 132 261 131 266 132 263 b 128 267 129 261 128 264 b 131 268 128 267 130 268 z m 122 356 b 127 350 125 356 127 353 b 125 344 127 348 126 346 b 122 351 124 346 123 349 b 122 356 122 353 122 355 z m 191 126 b 113 151 168 146 141 155 b 75 136 100 149 87 144 b 59 59 52 121 59 90 b 98 8 63 25 82 18 b 160 23 120 -7 146 0 b 166 36 162 27 164 32 b 168 22 167 31 167 26 b 175 7 170 17 173 12 b 184 20 178 11 181 15 b 193 35 187 25 190 30 b 191 126 212 73 212 108 z "},"\"":{"ha":276,"x_min":0,"x_max":0,"o":"m 188 943 b 143 921 160 947 156 946 b 141 916 142 920 142 918 b 139 921 140 917 140 920 b 108 943 131 932 122 941 b 83 948 99 944 89 943 b 61 943 72 957 65 948 b 36 869 45 921 31 897 b 65 780 40 838 49 807 b 122 756 76 759 98 750 b 130 758 124 757 127 757 b 152 780 152 759 152 759 b 152 791 152 784 152 788 b 154 797 152 793 153 795 b 160 792 156 796 159 795 b 185 772 163 779 174 773 b 223 777 197 770 211 773 b 233 792 227 778 233 787 b 233 882 234 822 234 852 b 225 908 233 891 227 899 b 188 943 221 928 205 934 z m 163 916 b 164 920 163 917 163 919 b 167 928 166 923 167 925 b 170 927 168 928 169 927 b 168 920 169 925 169 922 b 163 916 165 919 164 917 z "},"#":{"ha":592,"x_min":0,"x_max":0,"o":"m 130 254 b 168 261 144 256 156 259 b 187 258 174 261 182 261 b 188 238 190 256 188 245 b 188 229 188 235 188 232 b 202 133 193 197 196 165 b 215 78 205 114 210 96 b 226 68 217 73 222 71 b 228 82 226 72 228 77 b 226 104 228 89 227 96 b 228 108 226 105 227 107 b 231 103 229 107 230 105 b 237 71 233 92 234 81 b 246 66 238 68 243 66 b 251 72 247 66 250 70 b 252 90 252 78 252 84 b 255 96 253 92 254 94 b 257 89 256 94 257 91 b 256 81 257 86 256 84 b 265 77 256 73 260 73 b 270 87 267 80 268 84 b 272 94 271 90 272 92 b 275 86 273 92 274 89 b 278 79 276 84 277 81 b 283 85 280 81 282 82 b 294 165 294 110 296 139 b 299 262 291 198 298 230 b 304 270 299 265 302 268 b 307 262 305 268 307 265 b 315 200 310 242 313 221 b 325 95 318 165 322 130 b 329 26 327 72 327 49 b 334 6 329 19 332 12 b 341 0 335 3 338 2 b 345 7 342 2 344 5 b 346 18 346 10 346 14 b 340 106 344 47 341 76 b 331 221 339 145 337 183 b 330 261 330 234 330 248 b 333 268 330 263 332 265 b 335 262 333 266 334 264 b 337 235 336 253 336 244 b 348 106 341 192 346 149 b 350 13 350 75 349 44 b 355 0 350 9 352 3 b 366 4 357 -1 363 2 b 378 16 370 8 374 15 b 393 42 393 19 392 30 b 409 232 398 106 404 169 b 408 259 410 241 412 250 b 419 276 404 267 410 276 b 477 282 438 278 458 280 b 526 290 493 284 510 286 b 537 301 530 290 535 296 b 530 320 540 309 537 315 b 483 334 516 330 500 335 b 430 328 465 333 447 330 b 410 351 413 326 410 331 b 404 437 410 380 410 409 b 423 459 401 453 407 460 b 534 455 460 458 497 457 b 545 456 537 455 541 455 b 551 479 557 459 560 467 b 543 486 549 481 546 483 b 500 504 531 499 515 502 b 417 506 473 508 444 510 b 402 519 402 503 403 508 b 395 594 399 544 395 569 b 376 627 395 612 387 620 b 358 634 370 630 364 631 b 334 625 346 639 338 637 b 321 583 329 611 324 597 b 311 510 317 559 313 534 b 301 501 310 502 307 500 b 292 511 295 502 292 502 b 286 594 293 539 291 567 b 281 612 285 600 284 608 b 236 637 268 625 253 634 b 221 630 232 638 223 635 b 203 578 214 614 207 596 b 191 498 198 552 195 525 b 185 490 191 495 188 491 b 158 487 176 489 167 488 b 91 482 135 485 113 484 b 84 465 81 481 78 473 b 110 449 91 455 99 450 b 177 454 132 447 154 449 b 191 440 185 455 192 451 b 186 322 190 401 188 362 b 177 312 186 316 185 313 b 95 298 150 309 122 303 b 45 287 78 295 62 292 b 39 266 34 284 32 275 b 83 248 50 251 66 246 b 130 254 98 250 113 252 z m 296 337 b 294 421 297 368 297 395 b 296 447 293 430 295 439 b 303 453 297 450 301 453 b 309 447 305 453 307 449 b 309 444 310 446 309 445 b 305 337 308 408 306 372 b 301 323 304 332 302 328 b 296 337 299 328 297 332 z m 212 207 b 212 255 212 227 212 241 b 214 262 212 257 213 259 b 220 255 216 259 220 257 b 220 220 220 243 220 231 b 228 124 223 188 226 156 b 225 115 228 121 226 118 b 223 123 225 118 224 121 b 216 196 221 148 219 172 b 212 207 215 200 214 204 z m 288 262 b 285 264 287 263 286 263 b 288 262 288 265 288 263 z "},"&":{"ha":522,"x_min":0,"x_max":0,"o":"m 390 233 b 380 267 381 244 378 253 b 286 505 384 319 362 519 b 281 525 261 501 276 516 b 335 677 307 571 326 622 b 328 743 339 698 340 720 b 270 797 314 770 294 784 b 175 804 238 813 207 810 b 62 714 123 794 88 763 b 38 531 32 657 32 595 b 54 466 40 509 49 487 b 100 349 64 424 80 384 b 105 270 117 319 116 297 b 102 265 104 268 102 267 b 79 85 82 207 63 150 b 141 22 88 52 110 28 b 213 28 166 17 189 15 b 277 70 236 40 260 50 b 299 73 286 80 290 80 b 377 12 324 52 350 31 b 411 0 387 5 401 -1 b 457 23 428 3 443 12 b 465 45 465 29 467 35 b 463 68 464 52 464 60 b 475 49 467 62 471 56 b 478 42 476 47 477 42 b 487 44 481 41 484 43 b 480 94 480 60 491 75 b 390 233 451 140 425 189 z m 90 168 b 92 171 92 169 92 170 b 92 186 92 176 92 181 b 95 169 93 181 94 175 b 94 151 93 162 94 157 b 89 132 93 145 91 138 b 87 154 88 140 87 147 b 90 168 86 159 89 163 z m 280 726 b 275 679 279 707 278 693 b 222 539 264 629 243 584 b 218 531 221 536 219 534 b 206 511 214 525 210 518 b 195 530 202 518 198 523 b 158 639 179 565 163 600 b 158 690 155 656 156 673 b 245 766 160 733 208 768 b 272 744 255 765 270 764 b 280 726 272 738 277 732 z m 139 202 b 149 240 144 217 145 229 b 163 241 151 247 154 254 b 250 130 191 203 220 167 b 249 109 256 122 256 115 b 198 65 233 94 216 79 b 153 79 188 56 164 64 b 134 177 131 109 127 142 b 139 202 136 185 137 193 z m 305 379 b 306 357 305 376 306 360 b 250 437 302 359 266 410 b 265 490 243 449 257 471 b 281 464 269 482 277 472 b 301 403 290 445 295 423 z m 86 691 b 78 678 82 685 80 681 b 71 667 76 674 74 671 b 72 681 71 672 71 677 b 75 694 72 686 73 691 b 86 712 78 701 82 706 b 86 691 86 705 86 698 z m 250 569 b 254 559 254 564 254 561 b 250 559 252 559 250 559 b 250 569 250 562 250 566 z m 85 120 b 87 124 86 121 86 122 b 85 120 88 121 87 120 z "},"'":{"ha":165,"x_min":0,"x_max":0,"o":"m 49 941 b 35 877 34 922 34 899 b 44 829 37 860 40 844 b 73 778 49 809 53 789 b 104 774 84 771 94 774 b 130 799 125 773 130 778 b 130 860 130 819 129 840 b 121 908 130 877 125 892 b 76 945 116 933 99 941 b 49 941 57 952 57 952 z "},"(":{"ha":260,"x_min":0,"x_max":0,"o":"m 121 892 b 113 876 118 884 115 881 b 63 726 96 826 77 778 b 36 565 49 675 38 620 b 38 410 34 514 34 462 b 49 281 42 367 43 324 b 64 180 53 247 56 212 b 103 56 75 137 90 97 b 154 0 113 23 130 2 b 187 20 165 -1 176 12 b 186 37 189 21 188 32 b 171 74 182 50 176 62 b 171 81 170 76 171 79 b 175 80 172 81 174 82 b 186 64 179 75 183 70 b 196 39 190 56 192 40 b 209 63 208 35 204 57 b 216 152 229 90 222 121 b 181 309 204 204 191 256 b 158 469 170 361 159 414 b 165 678 156 539 155 609 b 213 891 176 752 190 824 b 223 919 216 900 220 909 b 216 956 227 935 225 946 b 156 947 199 972 171 969 b 121 892 144 930 133 912 z m 180 249 b 184 229 181 240 183 235 b 188 222 185 224 187 223 b 184 222 187 222 185 222 b 180 243 183 231 181 237 b 175 260 178 251 176 255 b 177 265 175 262 176 264 b 179 259 178 263 179 261 b 180 249 180 256 180 252 z m 171 290 b 162 337 162 305 161 321 b 148 400 157 360 150 379 b 144 504 145 434 145 469 b 146 514 143 507 145 511 b 148 505 147 511 148 508 b 148 479 148 496 147 487 b 158 375 151 444 155 409 b 162 343 159 364 160 354 b 171 296 170 328 171 312 b 175 279 172 288 174 284 b 173 273 175 277 174 275 b 171 280 172 276 171 278 b 171 290 170 283 171 286 z m 114 818 b 117 829 117 822 117 825 b 120 828 118 829 119 829 b 119 818 120 825 119 821 b 105 771 118 799 109 786 b 92 717 99 753 95 735 b 80 642 86 692 84 666 b 71 553 75 613 71 583 b 68 502 71 536 69 518 b 75 392 67 466 72 429 b 80 342 76 376 79 359 b 105 186 82 288 93 237 b 137 85 113 151 126 118 b 143 68 138 79 141 74 b 141 58 143 65 141 61 b 135 61 139 59 136 59 b 108 138 125 86 114 111 b 76 290 96 188 85 239 b 66 402 70 326 71 365 b 62 527 61 444 63 485 b 84 699 61 586 68 644 b 87 717 85 704 86 711 b 101 771 93 735 97 753 b 114 818 101 789 110 802 z m 148 599 b 145 536 147 574 146 555 b 143 592 144 555 144 574 b 143 599 143 594 143 597 b 146 628 144 609 145 618 b 148 599 147 618 147 609 z m 148 666 b 152 667 151 669 152 668 b 151 637 151 657 151 647 b 148 666 150 646 149 656 z m 157 700 b 156 684 157 690 156 687 b 153 687 155 685 153 686 b 154 702 153 692 153 697 b 155 702 154 702 155 702 b 157 700 156 702 156 701 z m 146 522 b 148 526 145 525 146 525 b 146 522 147 524 146 523 z m 162 713 b 159 716 159 712 159 714 b 162 713 160 715 161 714 z m 166 741 b 164 737 165 740 164 738 b 166 741 163 741 164 741 z "},")":{"ha":260,"x_min":0,"x_max":0,"o":"m 139 892 b 104 947 127 912 115 930 b 44 956 89 969 60 972 b 37 919 35 946 32 935 b 47 891 40 909 43 900 b 94 678 70 824 84 752 b 102 469 104 609 104 539 b 79 309 100 414 90 361 b 44 152 68 256 55 204 b 51 63 37 121 30 90 b 63 39 56 57 51 35 b 73 64 67 40 69 56 b 84 80 76 70 80 75 b 89 81 85 82 87 81 b 89 74 89 79 90 76 b 73 37 84 62 78 50 b 72 20 72 32 71 21 b 106 0 83 12 95 -1 b 157 56 129 2 147 23 b 195 180 170 97 185 137 b 211 281 203 212 206 247 b 221 410 216 324 218 367 b 224 565 226 462 226 514 b 197 726 221 620 211 675 b 147 876 183 778 164 826 b 139 892 145 881 141 884 z m 80 249 b 80 259 80 252 80 256 b 83 265 80 261 82 263 b 84 260 83 264 85 262 b 80 243 83 255 82 251 b 75 222 79 237 77 231 b 71 222 74 222 73 222 b 75 229 73 223 74 224 b 80 249 77 235 79 240 z m 89 290 b 89 280 89 286 89 283 b 86 273 89 278 87 276 b 85 279 86 275 84 277 b 89 296 86 284 88 288 b 98 343 89 312 90 328 b 101 375 99 354 100 364 b 111 479 105 409 108 444 b 112 505 112 487 111 496 b 113 514 112 508 113 511 b 116 504 114 511 116 507 b 111 400 115 469 114 434 b 98 337 109 379 103 360 b 89 290 98 321 98 305 z m 145 818 b 159 771 149 802 159 789 b 173 717 163 753 167 735 b 176 699 174 711 174 704 b 197 527 191 644 199 586 b 193 402 197 485 199 444 b 183 290 188 365 189 326 b 152 138 175 239 164 188 b 125 61 145 111 134 86 b 119 58 124 59 121 59 b 117 68 118 61 116 65 b 123 85 118 74 121 79 b 154 186 134 118 146 151 b 180 342 166 237 178 288 b 185 392 180 359 184 376 b 192 502 188 429 193 466 b 189 553 191 518 189 536 b 180 642 188 583 185 613 b 168 717 175 666 173 692 b 154 771 164 735 161 753 b 141 818 151 786 141 799 b 139 828 140 821 140 825 b 142 829 140 829 141 829 b 145 818 142 825 143 822 z m 112 599 b 113 628 112 609 113 618 b 116 599 114 618 115 609 b 116 592 116 597 116 594 b 115 536 116 574 115 555 b 112 599 114 555 113 574 z m 112 666 b 109 637 111 656 110 646 b 108 667 109 647 108 657 b 112 666 108 668 109 669 z m 103 700 b 104 702 103 701 104 702 b 106 702 105 702 106 702 b 107 687 106 697 107 692 b 104 684 107 686 105 685 b 103 700 104 687 103 690 z m 114 522 b 112 526 113 523 113 524 b 114 522 113 525 115 525 z m 98 713 b 101 716 99 714 100 715 b 98 713 101 714 100 712 z m 96 737 b 94 741 95 738 95 740 b 96 737 95 741 97 741 z "},"+":{"ha":336,"x_min":0,"x_max":0,"o":"m 207 230 b 214 240 210 234 214 237 b 219 281 216 253 218 267 b 220 325 220 295 220 310 b 265 326 235 325 250 326 b 289 327 273 326 282 325 b 297 345 301 330 303 334 b 289 353 295 348 292 350 b 231 371 273 370 252 369 b 214 387 216 372 216 373 b 203 439 212 405 206 422 b 159 483 198 464 182 476 b 117 465 138 489 123 484 b 106 413 111 448 105 431 b 106 374 107 400 106 387 b 99 366 106 369 105 367 b 55 358 84 364 70 361 b 35 343 47 356 34 354 b 49 323 35 336 44 329 b 55 322 50 321 53 322 b 101 317 70 320 85 318 b 115 303 111 317 115 313 b 120 266 116 291 117 278 b 129 236 122 256 125 246 b 139 223 131 231 136 227 b 142 236 140 227 141 232 b 144 244 143 239 144 242 b 147 237 145 242 146 240 b 152 224 148 233 150 228 b 161 218 154 221 159 217 b 169 227 164 220 168 223 b 169 245 170 233 169 239 b 171 249 169 246 170 247 b 174 244 172 247 173 246 b 174 235 174 241 174 238 b 176 227 174 233 175 230 b 185 231 179 228 183 229 b 195 244 189 235 191 240 b 197 227 195 239 195 233 b 202 222 197 225 200 224 b 207 230 203 224 204 227 z m 141 295 b 138 296 140 296 138 296 b 140 303 139 299 139 301 b 141 295 142 299 141 297 z "},",":{"ha":190,"x_min":0,"x_max":0,"o":"m 118 131 b 90 140 109 135 97 143 b 63 113 80 135 70 126 b 36 -1 43 78 46 37 b 35 -47 33 -16 37 -32 b 54 -91 33 -67 39 -80 b 88 -87 67 -100 77 -100 b 95 -82 90 -85 93 -84 b 93 -91 94 -85 94 -88 b 92 -99 93 -93 92 -96 b 99 -97 95 -98 98 -99 b 120 -64 111 -90 116 -78 b 137 -7 125 -45 132 -26 b 154 77 143 21 155 48 b 148 101 154 85 152 94 b 134 120 145 108 140 113 b 118 131 128 124 123 128 z "},"-":{"ha":279,"x_min":0,"x_max":0,"o":"m 89 352 b 47 339 74 350 60 347 b 40 315 33 330 31 327 b 56 302 44 309 50 303 b 108 298 73 299 92 295 b 167 302 128 302 148 301 b 208 307 181 303 195 304 b 231 315 216 308 224 312 b 237 337 246 322 247 327 b 193 356 225 350 211 357 b 139 356 176 356 158 356 b 89 352 121 355 105 353 z "},".":{"ha":200,"x_min":0,"x_max":0,"o":"m 161 45 b 151 86 166 59 166 74 b 86 109 132 101 110 107 b 48 92 69 111 58 104 b 41 34 35 76 30 47 b 108 0 57 14 77 -2 b 161 45 139 2 153 21 z "},"=":{"ha":328,"x_min":0,"x_max":0,"o":"m 286 298 b 214 330 267 320 241 329 b 103 330 177 332 140 331 b 64 322 90 330 77 325 b 48 317 58 321 53 319 b 36 295 39 313 32 300 b 76 264 48 284 55 266 b 168 258 107 256 137 259 b 188 258 175 258 181 258 b 199 259 192 258 196 258 b 250 268 216 262 233 264 b 282 277 261 270 272 272 b 286 298 294 282 295 288 z m 66 372 b 107 367 79 368 93 367 b 209 376 141 366 175 370 b 272 385 230 379 251 381 b 287 398 278 386 283 393 b 280 408 287 399 283 405 b 256 425 272 414 265 422 b 199 435 237 432 219 436 b 117 433 172 434 145 435 b 107 430 113 432 110 430 b 47 412 86 428 66 422 b 40 391 39 407 35 396 b 66 372 48 383 57 375 z "},"?":{"ha":476,"x_min":0,"x_max":0,"o":"m 438 685 b 337 797 424 741 389 778 b 271 815 315 804 294 810 b 170 809 236 822 203 819 b 69 722 125 796 91 769 b 42 573 40 674 40 624 b 50 539 43 561 46 549 b 107 420 65 497 84 458 b 182 389 120 399 160 381 b 216 412 195 393 207 402 b 219 439 221 417 221 430 b 202 529 212 468 206 498 b 197 649 196 574 194 608 b 240 730 200 684 216 709 b 341 720 273 757 321 753 b 370 612 362 688 366 650 b 370 604 370 609 371 605 b 364 574 360 595 366 584 b 360 553 363 567 362 560 b 305 397 349 498 323 449 b 284 300 294 365 285 334 b 280 225 283 275 285 250 b 284 161 275 205 275 182 b 288 154 285 159 286 155 b 327 181 300 153 325 170 b 332 231 329 198 331 214 b 338 308 334 257 332 284 b 379 440 349 353 362 397 b 435 604 400 494 420 548 b 438 685 443 631 444 660 z m 85 627 b 80 627 85 627 80 626 b 75 639 78 631 74 636 b 93 687 80 655 87 671 b 85 627 92 665 89 646 z m 123 639 b 127 640 123 639 126 639 b 128 633 127 637 128 635 b 123 639 125 633 124 636 z m 164 631 b 164 652 164 638 164 645 b 166 644 165 649 165 647 b 164 631 165 636 165 633 z m 180 624 b 176 650 179 633 178 641 b 181 651 180 652 181 651 b 180 624 181 642 180 633 z m 182 661 b 185 659 185 662 185 661 b 182 661 184 660 183 660 z m 297 262 b 295 290 295 273 294 282 b 298 307 295 296 297 302 b 300 289 299 301 300 295 b 297 262 300 280 298 271 z m 386 581 b 375 541 383 568 379 554 b 373 527 375 532 374 530 b 360 499 369 518 365 508 b 367 532 363 510 365 521 b 380 580 371 548 376 564 b 384 589 381 583 383 586 b 386 581 385 586 386 584 z m 359 90 b 354 97 357 91 355 95 b 344 112 351 102 349 109 b 229 97 313 132 252 128 b 220 70 225 87 221 79 b 240 19 216 49 226 33 b 293 0 255 3 275 -1 b 346 14 310 1 329 5 b 375 50 362 22 371 34 b 359 90 378 65 378 83 z "},"@":{"ha":793,"x_min":0,"x_max":0,"o":"m 40 374 b 45 325 41 356 42 340 b 109 166 58 268 77 213 b 232 54 141 120 181 81 b 369 2 276 31 321 12 b 441 16 394 -3 420 0 b 450 31 446 20 451 29 b 432 44 446 36 439 41 b 418 41 428 46 423 42 b 384 35 407 38 394 32 b 295 68 354 43 322 52 b 191 167 254 92 219 126 b 119 398 145 237 122 315 b 123 472 118 423 118 447 b 188 609 134 523 154 570 b 340 716 230 658 283 690 b 451 741 375 732 412 743 b 504 736 469 740 486 737 b 566 712 527 733 546 724 b 640 648 594 696 619 676 b 704 484 677 599 697 544 b 680 348 709 436 697 391 b 645 271 670 321 658 296 b 589 245 634 248 611 245 b 567 259 582 245 571 252 b 551 317 558 277 549 295 b 556 434 553 356 554 395 b 562 464 557 444 560 454 b 546 501 565 480 558 491 b 513 529 535 510 524 520 b 497 541 508 533 502 537 b 409 578 472 564 440 571 b 355 575 392 582 373 579 b 269 515 320 567 294 543 b 198 329 222 462 206 397 b 209 229 194 295 200 261 b 272 136 219 191 239 158 b 418 155 322 104 373 122 b 493 271 455 183 476 227 b 496 281 494 274 495 278 b 503 274 499 279 502 277 b 604 224 526 233 563 219 b 708 284 645 229 682 249 b 755 393 733 317 752 354 b 736 552 760 447 759 500 b 628 709 710 612 679 666 b 453 783 577 752 517 774 b 320 769 409 789 364 785 b 213 720 283 755 247 740 b 84 599 161 689 117 648 b 35 409 47 543 36 477 b 40 374 35 399 38 388 z m 680 315 b 685 325 684 318 684 322 b 691 342 689 331 690 336 b 696 347 694 343 695 345 b 696 342 696 345 696 343 b 691 325 692 336 691 331 b 685 315 687 322 686 318 b 681 305 682 311 682 308 b 678 306 680 305 679 306 b 680 315 679 309 679 312 z m 327 347 b 330 349 330 348 329 349 b 333 363 331 354 332 358 b 332 347 332 357 332 352 b 324 322 328 339 326 330 b 320 305 323 317 322 311 b 319 326 320 312 318 319 b 327 347 321 333 324 340 z m 106 595 b 111 600 109 597 110 599 b 111 595 111 599 111 597 b 77 534 98 575 88 554 b 74 531 77 533 75 532 b 72 538 73 533 71 537 b 106 595 84 556 88 580 z m 464 396 b 468 405 467 399 467 402 b 471 404 469 405 470 404 b 469 396 471 401 470 398 b 450 338 461 376 457 357 b 424 276 443 317 433 297 b 420 273 424 275 422 274 b 419 277 420 274 419 276 b 430 305 423 287 426 296 b 464 396 441 335 453 365 z m 372 414 b 417 466 389 434 403 450 b 435 480 422 472 429 475 b 455 474 444 486 452 482 b 459 437 460 463 466 453 b 392 263 434 380 415 321 b 356 195 382 239 368 217 b 345 195 352 188 349 188 b 336 220 342 203 336 211 b 336 317 334 252 330 285 b 372 409 342 349 352 382 b 372 414 372 410 372 413 z m 235 371 b 267 452 245 402 256 427 b 276 459 268 455 273 457 b 272 448 275 455 274 451 b 240 348 260 415 244 384 b 237 342 240 346 238 344 b 235 349 236 344 236 347 b 235 371 225 356 240 364 z m 309 344 b 314 347 310 349 314 347 b 309 322 312 339 310 331 b 305 305 307 317 306 311 b 303 325 304 312 303 319 b 309 344 304 332 307 338 z m 277 355 b 277 323 277 341 277 332 b 271 320 277 322 273 320 b 267 325 269 320 266 324 b 273 357 268 336 271 346 b 275 357 273 357 275 357 b 277 355 276 356 276 356 z m 338 369 b 335 371 337 370 336 371 b 338 369 338 372 338 371 z "},"A":{"ha":579,"x_min":0,"x_max":0,"o":"m 492 857 b 452 920 483 880 471 902 b 352 967 426 944 389 957 b 221 966 310 977 261 983 b 165 922 197 956 180 939 b 68 726 116 863 90 794 b -9 213 14 558 -25 385 b 26 169 -7 194 2 169 b 63 211 49 169 59 192 b 112 482 79 301 96 391 b 136 492 114 489 126 492 b 340 504 204 496 272 500 b 368 493 351 505 367 503 b 422 28 375 338 394 182 b 453 -8 425 12 434 -7 b 420 239 435 74 424 157 b 454 19 431 166 442 92 b 466 -2 455 11 457 2 b 482 8 474 -6 489 2 b 496 4 487 7 491 6 b 503 24 498 11 500 17 b 521 13 509 20 515 17 b 518 539 511 188 510 364 b 492 857 523 646 531 755 z m 191 775 b 202 781 193 779 198 783 b 110 543 164 704 133 624 b 120 597 108 562 114 580 b 191 775 142 657 166 716 z m 158 656 b 230 800 177 705 197 755 b 123 544 187 717 151 631 b 124 563 120 550 122 557 b 158 656 135 594 146 625 z m 49 556 b 53 562 47 558 49 562 b 47 541 50 555 48 548 b 48 556 43 545 43 553 z m 85 462 b 93 487 83 471 86 480 b 91 477 92 484 92 480 b 89 467 91 474 90 471 b 85 462 89 465 88 462 z m 58 476 b 62 480 58 478 60 481 b 60 458 64 473 63 465 b 58 476 58 464 57 470 z m 45 386 b 49 431 45 401 47 416 b 56 448 50 437 51 443 b 57 440 58 446 57 443 b 49 400 54 427 52 414 b 45 386 49 395 48 390 z m 76 543 b 126 703 89 597 106 651 b 132 706 127 705 131 708 b 90 570 116 661 102 616 b 76 543 87 560 84 551 z m 357 556 b 134 545 283 550 209 547 b 206 729 154 607 178 669 b 299 869 229 779 255 829 b 325 773 313 838 319 805 b 357 556 337 700 348 628 z m 133 812 b 176 875 143 835 155 858 b 54 565 121 776 80 671 b 52 577 50 568 51 573 b 133 812 70 657 97 736 z m 17 347 b 11 210 14 302 12 256 b 22 438 4 286 7 363 b 25 415 28 432 26 423 b 17 347 20 393 18 370 z m 412 372 b 405 421 409 388 407 405 b 397 506 403 450 400 478 b 403 512 396 509 399 514 b 405 509 404 512 404 510 b 410 471 408 497 409 484 b 415 389 412 444 414 417 b 412 372 416 383 416 377 z m 502 657 b 510 562 509 626 510 594 b 508 557 510 560 509 558 b 502 556 506 555 503 555 b 501 559 501 557 501 558 b 502 657 500 592 500 625 z m 485 650 b 485 587 488 629 488 608 b 485 650 481 608 481 629 z m 442 595 b 439 566 444 585 446 574 b 439 603 436 578 436 591 b 442 595 440 600 441 597 z m 394 559 b 392 562 392 560 392 561 b 394 588 391 571 392 580 b 400 567 396 581 398 574 b 400 561 400 565 401 563 b 394 559 399 559 395 558 z m 37 351 b 43 373 32 358 35 368 b 37 351 46 366 44 357 z m 421 242 b 421 269 418 251 418 260 b 421 242 425 260 425 251 z m 78 422 b 78 441 75 428 75 435 b 78 422 82 435 82 428 z m 74 401 b 75 420 70 407 70 415 b 76 403 75 414 76 408 z m 29 469 b 29 455 32 465 32 459 b 28 469 25 459 25 465 z m 69 390 b 69 397 66 392 66 396 b 69 390 72 396 72 392 z m 26 449 b 24 444 27 448 26 445 b 22 449 23 446 21 447 b 26 449 22 451 26 451 z m 417 282 b 417 279 419 282 419 279 b 417 282 415 279 415 282 z m 83 444 b 83 447 81 444 81 447 b 83 444 85 447 85 444 z m 94 450 b 98 449 95 451 99 450 b 94 449 97 449 95 449 z m 54 453 b 58 452 54 455 58 454 b 53 452 56 452 55 452 z m 94 457 b 98 456 95 459 99 458 b 94 456 97 456 95 456 z m 101 469 b 101 466 103 469 103 466 b 101 469 99 466 99 469 z m 31 493 b 35 492 32 494 36 494 b 31 492 34 492 32 492 z "},"B":{"ha":660,"x_min":0,"x_max":0,"o":"m 182 368 b 286 256 209 325 244 287 b 429 194 327 224 376 199 b 575 243 483 188 542 204 b 591 378 608 281 611 335 b 483 477 571 422 530 455 b 333 515 437 498 385 508 b 547 722 427 560 503 634 b 573 820 562 753 574 786 b 528 909 572 853 558 888 b 371 906 485 940 419 933 b 260 793 323 879 290 836 b 181 648 228 747 197 700 b 163 863 175 719 169 791 b 150 935 161 887 159 912 b 98 987 141 957 123 978 b 73 980 88 990 74 989 b 50 989 73 989 59 993 b 33 967 41 985 36 975 b 19 878 23 938 21 908 b 65 35 2 596 18 313 b 73 10 66 26 68 17 b 99 3 79 3 90 -1 b 94 62 91 21 90 42 b 101 22 97 48 99 35 b 112 3 103 15 105 6 b 125 13 119 0 130 8 b 148 27 135 7 151 16 b 168 34 155 24 164 28 b 172 54 171 40 172 47 b 182 368 175 159 179 263 z m 253 760 b 245 747 255 754 251 748 b 237 734 247 741 243 736 b 221 709 236 724 230 715 b 235 734 227 717 231 725 b 245 747 237 739 239 746 b 253 760 244 752 248 758 z m 484 698 b 487 706 482 700 484 705 b 475 682 487 697 482 688 b 471 682 474 681 472 681 b 482 698 475 687 478 693 z m 104 408 b 99 426 106 414 104 421 b 102 436 102 428 102 433 b 99 507 101 460 100 483 b 108 470 102 495 105 482 b 107 462 109 468 108 465 b 108 412 104 446 109 429 b 104 408 108 410 106 407 z m 273 535 b 188 490 245 520 216 505 b 394 861 221 627 278 766 b 443 888 408 873 424 884 b 495 873 462 892 485 888 b 502 848 500 865 501 857 b 344 576 512 742 441 638 b 273 535 322 561 297 548 z m 526 354 b 526 279 533 330 536 303 b 465 231 517 255 493 234 b 385 259 436 227 408 243 b 203 467 307 314 244 386 b 271 469 224 459 248 465 b 402 467 314 478 360 478 b 506 398 444 456 483 432 b 526 354 515 385 521 370 z m 51 458 b 57 495 51 470 50 484 b 85 114 66 368 76 241 b 76 154 78 126 77 140 b 51 458 67 255 58 356 z m 166 335 b 169 364 160 344 161 357 b 166 335 172 355 171 344 z m 147 556 b 144 594 142 569 141 582 b 147 556 149 582 150 569 z m 145 539 b 144 528 147 535 146 531 b 142 553 140 536 140 545 b 145 539 145 549 147 544 z m 88 98 b 86 110 83 99 82 106 b 88 100 88 107 89 103 z m 551 287 b 547 287 550 287 548 287 b 551 289 546 289 550 291 z m 209 686 b 213 685 209 687 213 687 b 209 684 211 685 210 684 z "},"C":{"ha":507,"x_min":0,"x_max":0,"o":"m 74 143 b 209 27 104 90 149 39 b 296 38 238 21 270 25 b 376 127 333 56 360 90 b 409 243 393 164 401 204 b 409 258 410 248 411 253 b 368 267 405 273 383 272 b 333 246 355 263 340 258 b 327 218 328 237 327 227 b 294 101 324 177 313 137 b 272 98 290 94 279 93 b 258 118 265 102 261 110 b 204 607 194 271 187 442 b 276 871 213 698 230 791 b 318 901 285 887 300 904 b 337 889 325 899 331 894 b 395 798 364 865 384 833 b 412 760 399 785 402 770 b 449 762 422 750 443 750 b 450 776 450 767 450 771 b 300 967 446 861 382 939 b 223 976 275 975 249 979 b 89 868 164 967 119 919 b 8 626 45 794 22 711 b 74 143 -19 463 -8 287 z m 132 749 b 154 797 137 767 142 784 b 109 350 109 653 94 500 b 100 387 103 361 101 374 b 132 749 90 509 101 632 z m 68 711 b 154 891 84 776 108 841 b 53 372 66 734 30 550 b 41 408 43 381 42 395 b 68 711 34 510 43 613 z m 265 878 b 222 778 247 846 233 813 b 207 722 216 760 211 741 b 200 243 171 565 169 401 b 189 261 193 246 191 254 b 198 723 161 414 164 572 b 265 878 210 778 228 834 z m 166 280 b 209 833 130 464 146 657 b 223 841 212 839 219 846 b 160 561 185 753 167 657 b 178 256 152 459 155 356 b 166 280 170 261 167 271 z "},"D":{"ha":560,"x_min":0,"x_max":0,"o":"m 428 873 b 375 892 412 884 394 892 b 296 847 344 891 317 869 b 184 683 250 799 212 743 b 161 862 182 743 174 803 b 138 925 157 884 151 907 b 79 952 124 943 102 957 b 57 957 75 959 65 961 b 41 940 50 954 45 947 b 21 864 28 917 24 890 b 24 401 3 711 14 555 b 47 69 32 290 40 179 b 54 34 48 57 49 45 b 82 16 59 24 70 15 b 57 470 73 167 65 319 b 58 555 55 499 54 527 b 91 27 69 379 80 203 b 93 16 91 23 91 19 b 121 25 100 6 117 13 b 125 60 125 36 122 49 b 132 19 125 46 128 32 b 156 56 147 25 157 40 b 168 24 160 45 164 34 b 191 121 184 53 192 87 b 451 331 307 136 403 226 b 502 672 499 437 507 556 b 488 782 501 709 499 746 b 428 873 477 817 458 851 z m 262 789 b 282 811 265 799 272 807 b 264 788 279 801 272 793 b 242 756 259 776 251 765 b 201 680 228 730 215 705 b 197 677 200 678 199 677 b 212 708 198 689 204 700 b 218 725 212 714 215 720 b 238 758 224 736 231 747 b 262 789 244 769 252 780 z m 191 662 b 195 665 189 664 194 667 b 189 653 191 662 189 658 b 190 662 185 654 186 662 z m 395 345 b 406 376 398 355 402 365 b 395 334 408 361 404 346 b 395 345 392 336 393 341 z m 186 179 b 186 402 186 253 186 328 b 189 483 187 429 187 456 b 368 838 200 618 266 749 b 392 848 375 844 383 850 b 408 828 401 846 405 836 b 419 553 438 740 429 645 b 376 343 411 482 403 410 b 237 187 349 277 302 216 b 186 179 221 180 203 176 z m 169 212 b 169 220 168 215 168 218 b 170 233 171 224 171 229 b 169 357 167 274 166 316 b 177 340 175 355 177 346 b 176 175 177 285 177 230 b 169 212 174 188 171 200 z m 106 520 b 114 414 111 485 114 450 b 112 369 114 399 114 384 b 105 412 106 382 105 398 b 106 520 104 448 104 484 z m 177 98 b 174 87 178 94 177 90 b 175 120 171 97 171 109 b 178 98 176 113 177 106 z "},"E":{"ha":574,"x_min":0,"x_max":0,"o":"m 189 325 b 194 444 191 365 192 404 b 214 474 195 458 201 477 b 311 512 249 465 283 489 b 265 549 312 535 286 545 b 194 562 242 553 218 558 b 171 832 191 652 184 743 b 447 847 263 826 356 831 b 516 888 474 852 505 861 b 513 902 518 893 518 900 b 503 892 509 898 506 895 b 504 912 503 899 504 905 b 409 973 483 946 446 965 b 296 973 372 980 333 977 b 80 952 224 966 152 959 b 29 919 58 950 31 942 b 20 311 7 718 10 514 b 48 128 23 249 26 186 b 171 8 71 71 114 20 b 255 11 199 2 227 5 b 329 35 280 16 306 22 b 404 101 358 51 382 76 b 467 179 426 126 447 152 b 478 209 474 188 481 198 b 456 225 475 219 465 224 b 404 202 437 228 418 217 b 367 153 389 188 379 170 b 322 101 354 134 339 116 b 228 78 295 77 257 58 b 198 133 211 90 203 112 b 189 325 183 195 186 261 z m 172 329 b 176 316 175 326 176 321 b 175 252 175 295 175 273 b 174 228 175 244 175 236 b 174 170 174 209 174 189 b 167 225 167 187 167 206 b 168 361 167 270 167 316 b 172 329 178 355 180 338 z m 149 327 b 152 342 149 332 149 338 b 159 189 155 291 157 240 b 149 222 150 196 149 210 b 149 327 149 257 149 292 z m 174 365 b 174 380 171 369 171 376 b 174 365 177 376 177 369 z "},"F":{"ha":557,"x_min":0,"x_max":0,"o":"m 187 796 b 197 814 187 804 190 815 b 463 846 286 803 378 814 b 500 878 479 852 496 861 b 404 957 479 915 444 944 b 344 968 384 963 364 965 b 83 959 257 978 167 985 b 38 934 66 954 50 947 b 15 846 17 912 15 877 b 69 37 9 575 11 301 b 86 -2 72 23 76 8 b 91 32 93 7 92 20 b 64 385 82 150 56 267 b 101 -4 76 255 88 126 b 142 17 116 -1 131 6 b 171 57 159 15 168 39 b 193 451 188 187 195 319 b 211 464 193 460 203 463 b 371 487 264 472 317 479 b 336 524 367 505 352 518 b 284 528 319 530 301 529 b 195 525 254 527 225 526 b 187 796 193 616 190 706 z m 174 206 b 171 221 171 210 171 216 b 171 450 171 298 171 374 b 172 456 171 452 171 454 b 180 453 174 458 179 457 b 175 445 181 450 178 446 b 179 426 181 442 181 433 b 175 406 177 420 173 413 b 179 348 178 387 179 368 b 174 206 181 301 182 253 z m 110 323 b 109 336 109 327 109 331 b 110 349 109 340 111 344 b 110 444 106 380 106 412 b 117 311 114 400 116 355 b 114 288 117 303 117 295 b 110 323 113 300 111 311 z m 157 312 b 153 298 157 307 157 301 b 153 458 152 351 152 404 b 157 445 157 455 157 449 b 157 312 157 400 157 356 z m 112 229 b 115 236 111 232 112 235 b 115 217 118 230 118 223 b 112 229 112 220 111 225 z m 114 241 b 114 245 113 241 112 245 b 114 241 116 245 116 241 z m 155 524 b 155 520 157 524 157 520 b 155 524 153 520 153 524 z "},"G":{"ha":608,"x_min":0,"x_max":0,"o":"m 534 476 b 512 539 530 499 526 524 b 483 557 504 548 494 554 b 438 572 470 567 454 571 b 328 572 401 574 364 574 b 288 561 314 572 301 565 b 272 554 283 559 277 558 b 261 525 264 548 256 531 b 301 482 272 509 280 485 b 392 475 332 472 362 475 b 399 475 394 475 397 475 b 390 330 393 427 394 378 b 299 85 381 240 349 153 b 263 75 290 73 275 70 b 231 103 250 80 240 91 b 168 358 180 170 168 267 b 316 825 169 530 211 710 b 361 858 329 839 344 853 b 411 843 379 864 399 859 b 447 862 421 827 445 842 b 424 913 449 882 437 900 b 199 921 363 975 268 971 b 52 696 130 871 84 786 b -5 407 20 605 0 506 b 17 181 -10 330 -6 252 b 142 16 40 110 84 46 b 293 16 189 -9 245 -9 b 399 148 341 40 380 89 b 404 128 404 145 404 135 b 421 49 403 100 407 71 b 481 23 434 27 459 14 b 483 55 479 34 480 45 b 491 21 483 43 486 31 b 512 92 509 36 511 66 b 513 248 512 144 513 196 b 522 22 537 178 501 94 b 545 92 533 43 541 67 b 550 143 548 109 549 126 b 534 476 555 255 550 366 z m 82 312 b 78 381 80 335 79 358 b 86 415 78 393 78 408 b 90 289 88 373 89 331 b 82 312 85 294 83 304 z m 39 392 b 40 332 38 372 37 352 b 36 294 42 318 46 302 b 30 385 32 324 29 354 b 35 438 30 403 32 421 b 125 761 49 552 70 668 b 39 392 79 646 50 520 z m 135 261 b 125 328 130 283 127 305 b 128 435 122 364 123 400 b 137 477 129 450 132 464 b 132 362 134 439 132 400 b 133 325 132 350 132 338 b 135 261 136 304 141 281 z m 147 306 b 204 671 141 431 161 557 b 215 687 206 678 209 685 b 156 257 165 553 145 403 b 147 306 149 272 148 289 z m 446 33 b 447 38 445 33 445 38 b 446 33 448 38 448 33 z m 478 143 b 478 147 476 143 476 147 b 478 143 480 147 480 143 z m 479 158 b 473 224 472 179 469 202 b 479 209 476 221 478 215 b 479 158 482 192 482 175 z m 540 228 b 533 76 539 177 536 127 b 530 95 530 82 530 89 b 530 233 530 141 530 187 b 537 257 530 242 531 253 b 540 228 540 248 540 238 z "},"H":{"ha":601,"x_min":0,"x_max":0,"o":"m 495 37 b 518 71 507 44 515 57 b 524 50 525 68 525 58 b 532 53 524 45 531 49 b 545 183 547 94 546 139 b 529 752 540 373 534 562 b 526 863 528 789 527 826 b 522 888 526 871 525 880 b 467 922 514 910 489 918 b 449 887 466 908 459 896 b 456 927 452 900 454 914 b 419 889 438 932 425 908 b 380 365 372 720 376 541 b 213 348 324 365 268 360 b 190 359 203 346 189 348 b 191 826 205 514 206 671 b 172 917 189 857 185 889 b 106 970 159 944 135 968 b 98 957 105 965 102 960 b 93 977 96 964 95 970 b 52 950 76 977 61 965 b 35 899 43 935 39 916 b 68 74 -16 627 12 345 b 102 7 73 48 80 19 b 73 231 92 81 83 156 b 53 545 60 335 47 440 b 57 551 53 548 54 552 b 114 7 64 369 83 186 b 138 37 128 6 140 22 b 144 17 140 30 142 23 b 160 47 154 22 160 34 b 171 26 164 40 167 33 b 186 260 199 99 180 181 b 189 270 187 263 187 267 b 201 275 192 273 197 274 b 379 303 260 285 320 294 b 390 263 389 293 390 277 b 408 78 393 201 399 139 b 444 29 412 55 423 26 b 419 312 436 123 428 217 b 430 295 426 312 430 302 b 451 45 437 211 444 128 b 455 32 452 41 452 36 b 480 36 461 23 474 27 b 485 67 485 44 485 56 b 495 37 491 58 494 48 z m 531 259 b 525 278 526 263 526 271 b 510 606 520 387 515 496 b 519 584 517 603 519 593 b 531 259 523 476 527 367 z m 416 627 b 420 615 420 626 421 620 b 419 581 419 604 419 592 b 419 556 419 573 419 564 b 426 355 420 489 422 422 b 417 369 420 355 417 363 b 411 566 411 435 411 500 b 411 641 411 591 411 616 b 412 645 411 642 411 644 b 422 641 414 650 422 646 b 416 627 423 636 419 631 z m 178 364 b 178 611 176 446 176 529 b 185 504 181 575 183 540 b 181 489 185 498 185 492 b 186 466 188 485 188 474 b 182 384 182 439 180 412 b 178 364 182 377 182 369 z m 155 437 b 154 579 154 485 154 532 b 163 610 154 590 155 603 b 158 450 165 557 161 503 b 155 437 157 446 157 441 z m 106 572 b 114 491 111 545 114 518 b 107 423 113 468 111 445 b 105 441 105 429 105 435 b 106 572 104 485 104 528 z m 499 467 b 492 587 496 507 494 547 b 502 609 492 596 493 607 b 502 481 502 567 502 524 b 499 467 502 476 502 471 z m 460 500 b 456 600 451 532 450 567 b 459 615 457 605 458 610 b 461 600 461 610 461 605 b 460 500 462 567 461 534 z m 529 230 b 532 243 528 235 529 240 b 532 218 535 235 535 226 b 529 230 529 221 528 226 z m 500 453 b 500 438 503 449 503 442 b 499 453 496 442 496 449 z m 529 250 b 533 250 529 252 533 252 b 529 250 533 248 529 248 z m 55 563 b 51 563 55 561 51 561 b 55 563 51 565 55 565 z m 420 654 b 415 656 418 655 417 655 b 420 658 417 656 418 657 z "},"I":{"ha":244,"x_min":0,"x_max":0,"o":"m 187 143 b 181 335 185 207 183 271 b 180 392 181 354 180 373 b 166 871 175 552 171 711 b 147 950 165 898 164 929 b 119 966 140 959 130 966 b 95 945 108 966 96 957 b 102 979 100 956 102 968 b 50 919 75 980 58 947 b 9 499 11 784 2 640 b 63 78 17 357 40 218 b 110 -4 69 45 79 5 b 42 615 70 199 47 407 b 47 679 41 636 41 658 b 103 72 52 475 71 272 b 123 2 107 48 112 23 b 142 11 129 -4 139 2 b 140 36 144 19 142 28 b 154 11 147 30 153 21 b 168 41 163 18 168 29 b 186 21 174 34 180 28 b 187 143 189 62 188 102 z m 166 418 b 162 393 167 409 167 400 b 152 559 157 448 154 504 b 155 651 151 590 151 620 b 156 622 155 641 156 632 b 161 527 158 590 160 558 b 166 418 163 490 165 454 z m 136 500 b 131 590 135 530 133 560 b 134 604 131 595 131 600 b 129 617 129 606 129 612 b 137 670 130 635 133 653 b 136 500 140 614 140 557 z m 95 604 b 90 551 99 587 97 567 b 90 656 88 586 88 621 b 95 604 98 640 90 621 z "},"J":{"ha":415,"x_min":0,"x_max":0,"o":"m 190 957 b 158 954 179 960 167 960 b 132 889 138 942 134 914 b 142 547 122 775 126 660 b -11 351 66 518 10 439 b 12 86 -31 264 -19 169 b 68 7 24 54 41 21 b 129 0 87 -3 109 -4 b 226 54 165 6 199 25 b 290 193 260 91 280 142 b 302 352 300 245 301 299 b 306 551 303 418 305 485 b 334 563 310 562 323 563 b 360 580 345 563 359 567 b 329 592 355 591 341 592 b 302 610 318 592 303 597 b 277 816 298 679 289 748 b 251 902 271 846 264 876 b 190 957 237 929 216 951 z m 8 374 b 5 371 10 373 6 369 b 10 390 9 377 10 383 b 9 374 15 386 15 376 z m 109 76 b 56 176 82 101 68 139 b 35 297 44 215 35 256 b 144 491 37 377 80 455 b 164 241 151 408 158 324 b 143 72 169 183 173 120 b 109 76 135 61 119 67 z m 184 505 b 200 318 189 443 195 380 b 201 215 203 284 206 249 b 196 253 198 228 197 240 b 183 409 192 305 187 357 b 184 505 181 441 178 474 z m 285 539 b 293 463 291 514 293 488 b 292 399 294 441 293 420 b 284 438 284 409 284 424 b 285 539 284 472 284 505 z m 269 545 b 270 450 272 514 272 482 b 266 463 267 454 266 459 b 269 545 266 490 265 518 z m 228 445 b 228 498 224 462 224 481 b 228 445 232 481 232 462 z "},"K":{"ha":647,"x_min":0,"x_max":0,"o":"m 272 439 b 268 461 267 445 263 455 b 504 802 357 564 436 679 b 526 861 514 821 524 840 b 484 946 530 896 512 932 b 465 926 478 939 472 933 b 471 954 473 932 476 945 b 446 961 466 963 454 966 b 429 956 441 957 432 950 b 443 972 434 962 438 967 b 391 966 428 985 407 977 b 286 834 346 935 315 884 b 198 665 255 779 225 723 b 182 804 193 712 187 758 b 116 966 175 865 163 935 b 82 960 105 973 86 975 b 64 979 86 971 73 982 b 43 955 54 976 47 965 b 11 793 21 905 15 848 b 81 61 -4 547 20 298 b 116 18 86 40 97 15 b 59 507 82 178 51 342 b 122 15 67 341 88 176 b 140 18 128 14 135 15 b 142 41 139 26 140 34 b 147 25 144 36 145 30 b 164 46 156 26 164 36 b 176 42 164 40 172 38 b 182 59 181 46 181 53 b 195 278 186 132 190 205 b 288 140 221 227 247 176 b 431 114 328 104 385 87 b 515 257 477 140 498 201 b 591 532 542 348 567 440 b 553 549 578 538 566 543 b 496 368 534 488 515 428 b 426 198 478 309 459 249 b 403 191 420 189 407 181 b 272 439 370 281 326 364 z m 448 903 b 448 888 453 901 451 893 b 377 777 426 850 402 813 b 376 787 375 779 375 784 b 448 903 400 826 424 865 z m 477 807 b 488 813 479 811 484 817 b 390 648 461 754 428 699 b 392 662 387 652 389 658 b 477 807 422 709 450 758 z m 323 812 b 422 939 351 859 384 901 b 396 896 417 922 406 909 b 202 551 315 795 258 672 b 204 580 195 558 199 571 b 275 724 227 628 251 676 b 323 812 290 754 305 784 z m 116 339 b 108 447 110 375 108 411 b 110 517 108 470 108 493 b 117 462 116 500 117 481 b 116 339 118 421 118 380 z m 471 841 b 471 827 476 840 474 831 b 405 722 451 790 428 755 b 405 733 401 723 402 729 b 471 841 427 769 449 805 z m 164 142 b 156 135 166 138 160 133 b 153 148 152 138 151 144 b 161 160 154 153 158 156 b 163 142 163 154 164 148 z m 183 521 b 184 512 186 519 186 514 b 176 513 182 509 178 510 b 183 521 179 516 181 518 z m 181 302 b 186 301 181 304 185 303 b 183 294 186 298 185 296 b 181 302 181 295 180 299 z m 172 147 b 176 146 173 150 177 148 b 172 146 175 146 173 146 z m 522 402 b 522 397 524 402 524 398 b 522 402 520 398 520 402 z m 526 417 b 526 413 528 417 528 413 b 526 417 524 413 524 417 z m 544 479 b 544 475 546 479 546 475 b 544 479 542 475 542 479 z "},"L":{"ha":486,"x_min":0,"x_max":0,"o":"m 343 90 b 424 117 372 84 402 94 b 423 153 433 125 431 143 b 392 168 415 163 403 166 b 174 134 319 182 242 170 b 175 811 186 359 186 585 b 142 932 173 854 169 902 b 97 962 130 947 113 955 b 60 964 85 967 71 971 b 44 937 52 958 47 948 b 11 698 16 863 12 780 b 56 64 9 486 24 273 b 65 31 58 53 60 41 b 151 17 82 -1 122 3 b 343 90 215 47 276 102 z m 83 137 b 85 67 85 113 87 90 b 56 420 67 183 57 302 b 61 389 59 410 60 400 b 83 137 68 305 76 221 z m 160 436 b 169 509 160 461 160 487 b 169 221 170 413 170 317 b 161 285 161 241 161 263 b 160 436 161 335 160 386 z m 108 223 b 101 396 106 281 103 338 b 104 453 101 415 100 435 b 106 436 105 448 105 442 b 112 297 108 390 110 343 b 115 240 113 278 114 259 b 108 223 115 233 114 223 z m 143 513 b 147 382 160 474 148 426 b 146 298 146 354 149 326 b 142 314 143 302 143 308 b 143 513 142 380 142 447 z m 149 272 b 145 254 147 266 146 260 b 144 289 141 265 141 278 b 151 272 147 283 149 278 z "},"M":{"ha":729,"x_min":0,"x_max":0,"o":"m 354 466 b 350 675 353 536 351 606 b 336 761 349 705 348 736 b 271 795 323 787 295 806 b 235 745 253 787 243 766 b 164 398 192 637 177 517 b 158 733 162 510 160 621 b 148 850 157 772 156 812 b 95 948 139 887 123 924 b 69 946 87 956 70 958 b 53 968 67 955 61 964 b 7 815 16 932 9 871 b 87 54 -2 559 25 301 b 116 17 91 36 100 15 b 100 108 111 47 105 77 b 124 31 108 82 116 56 b 129 22 125 27 127 24 b 141 24 133 20 137 22 b 178 57 154 33 169 42 b 191 111 187 72 189 92 b 272 705 207 311 213 515 b 283 717 274 710 278 717 b 310 378 292 604 301 491 b 321 327 311 361 313 342 b 361 310 330 312 347 302 b 382 348 373 317 378 333 b 488 755 417 483 453 619 b 497 739 495 756 497 746 b 554 24 488 499 508 258 b 575 -2 557 11 564 -5 b 578 40 576 12 577 26 b 591 1 582 27 587 14 b 634 41 610 3 626 21 b 645 107 642 62 644 85 b 650 172 647 128 648 150 b 666 418 656 254 662 336 b 673 748 672 528 674 638 b 663 853 672 783 671 819 b 612 939 655 887 638 920 b 557 962 596 952 576 958 b 521 962 545 965 533 967 b 495 936 510 958 502 947 b 398 671 445 858 420 764 b 354 466 382 603 368 535 z m 328 358 b 326 369 324 358 322 366 b 332 348 330 363 332 356 b 329 358 329 350 327 355 z m 213 637 b 211 621 216 632 217 622 b 213 637 210 627 211 632 z m 557 203 b 557 225 553 209 552 219 b 563 188 559 213 562 201 b 559 204 558 192 557 199 z m 222 673 b 232 705 225 683 229 694 b 222 662 235 690 231 673 b 222 673 220 664 220 669 z m 394 589 b 476 859 413 682 434 776 b 362 402 424 712 386 559 b 361 431 357 410 359 421 b 394 589 372 483 382 536 z m 539 628 b 557 235 545 497 551 366 b 547 290 550 252 549 271 b 539 628 539 402 531 515 z m 79 259 b 67 298 72 270 69 284 b 43 596 52 396 44 496 b 49 570 48 589 49 580 b 79 259 57 466 67 362 z m 650 452 b 651 527 648 477 648 502 b 651 567 647 540 647 554 b 653 579 652 571 654 575 b 657 659 644 604 650 633 b 658 477 658 598 658 538 b 650 452 658 468 657 457 z m 151 398 b 145 509 149 435 147 472 b 143 557 144 525 143 541 b 145 627 142 581 143 604 b 153 538 151 598 153 568 b 151 398 152 491 151 445 z m 127 649 b 134 533 131 610 133 572 b 133 482 135 516 135 498 b 125 546 127 502 126 524 b 127 649 125 580 124 615 z m 631 670 b 639 638 634 659 636 649 b 637 628 635 638 635 632 b 639 618 638 625 641 621 b 634 513 630 585 639 548 b 630 548 626 522 629 536 b 631 569 630 555 631 562 b 631 670 631 602 631 636 z m 91 506 b 85 562 89 525 87 544 b 92 589 84 572 84 585 b 93 574 93 584 93 579 b 91 506 95 552 94 529 z m 588 602 b 588 532 592 579 592 555 b 588 602 584 555 584 579 z m 315 454 b 317 478 314 462 314 470 b 317 452 321 470 321 460 z m 173 338 b 173 328 176 336 176 330 b 173 338 170 330 170 336 z m 170 247 b 166 247 169 247 167 247 b 170 248 165 249 169 251 z m 322 416 b 322 420 320 416 320 420 b 321 416 323 420 323 416 z m 218 647 b 218 652 216 648 216 652 b 218 647 220 652 220 648 z m 588 616 b 588 611 590 616 590 612 b 588 616 586 612 586 616 z m 322 400 b 322 405 320 400 320 405 b 321 400 323 405 323 400 z "},"N":{"ha":635,"x_min":0,"x_max":0,"o":"m 204 787 b 150 940 199 844 187 907 b 104 956 136 952 120 959 b 93 970 105 963 99 969 b 77 962 87 970 81 966 b 20 796 36 925 26 857 b 40 201 1 597 -1 394 b 92 50 52 148 67 95 b 162 0 109 21 134 -6 b 221 94 195 8 211 54 b 400 732 274 310 324 527 b 449 39 368 502 405 266 b 459 8 451 28 454 17 b 483 -2 465 -1 474 -6 b 444 269 468 88 456 178 b 433 484 435 340 428 413 b 492 -4 445 320 465 157 b 515 25 504 -5 516 10 b 531 21 514 16 526 14 b 532 47 535 28 534 38 b 552 27 539 40 545 34 b 576 595 560 216 568 405 b 571 765 578 652 581 709 b 498 905 561 821 537 875 b 433 901 478 920 447 926 b 204 217 321 696 269 451 b 204 787 213 407 223 598 z m 301 525 b 297 523 303 523 298 520 b 304 531 300 525 302 528 b 302 526 307 531 304 525 z m 356 694 b 351 692 357 691 352 689 b 358 700 354 694 356 697 b 356 695 361 700 358 693 z m 406 819 b 409 822 404 821 408 825 b 397 795 405 813 401 804 b 400 811 398 800 399 806 b 405 818 400 815 402 820 z m 315 570 b 311 560 317 566 315 560 b 317 588 313 569 315 579 b 315 570 321 582 321 572 z m 121 70 b 93 132 105 83 98 108 b 57 661 57 304 44 484 b 58 597 57 640 58 619 b 121 70 63 419 69 236 z m 189 627 b 198 607 196 626 198 615 b 197 407 198 540 198 474 b 192 448 188 417 186 435 b 190 470 195 455 192 463 b 189 492 189 477 189 485 b 189 627 189 537 189 582 z m 550 515 b 558 578 550 537 550 559 b 553 390 561 515 560 452 b 550 407 550 395 550 401 b 550 515 550 443 550 479 z m 534 584 b 530 441 539 536 538 488 b 527 462 526 446 526 455 b 534 584 528 503 531 543 z m 173 573 b 167 490 166 546 176 516 b 168 628 165 536 165 582 b 175 586 170 614 172 600 b 173 573 175 582 174 577 z m 484 406 b 485 527 481 446 481 487 b 484 406 488 487 488 446 z m 114 606 b 114 485 118 566 118 525 b 114 606 110 525 111 566 z m 40 585 b 42 593 39 588 40 592 b 42 576 45 589 45 581 b 40 585 40 578 39 582 z m 385 768 b 385 779 382 770 382 777 b 385 768 388 777 388 770 z m 295 508 b 295 504 297 508 297 504 b 295 508 293 504 293 508 z "},"O":{"ha":669,"x_min":0,"x_max":0,"o":"m 582 327 b 613 577 602 409 617 493 b 539 813 609 662 586 747 b 345 922 492 879 420 924 b 314 929 334 922 322 921 b 177 934 276 963 220 960 b 80 815 135 908 104 863 b 10 626 49 757 25 693 b 26 255 -19 504 -18 371 b 271 20 70 139 162 44 b 316 15 286 17 301 15 b 493 119 384 15 449 59 b 582 327 536 179 562 253 z m 152 340 b 142 377 145 350 143 364 b 136 453 139 402 136 428 b 139 518 136 475 137 496 b 156 603 141 547 144 577 b 146 515 152 574 149 544 b 144 443 144 491 141 467 b 152 340 148 409 151 375 z m 160 477 b 240 776 167 583 186 691 b 175 325 178 638 155 478 b 164 368 171 340 166 354 b 160 477 157 404 158 441 z m 96 734 b 74 668 88 712 81 690 b 44 391 48 579 37 484 b 35 414 37 395 35 405 b 117 793 26 546 55 681 b 96 734 110 773 103 754 z m 421 113 b 356 69 404 90 382 68 b 309 95 339 70 323 82 b 184 423 227 175 188 300 b 244 751 179 535 200 649 b 288 593 256 697 268 643 b 379 467 308 543 338 497 b 530 421 423 435 477 424 b 421 113 507 312 483 199 z m 327 756 b 381 853 330 796 346 841 b 473 813 414 866 449 842 b 536 654 508 770 528 712 b 537 477 545 596 542 536 b 532 462 537 472 536 465 b 515 460 528 457 521 458 b 371 567 458 474 405 513 b 327 756 337 621 320 689 z m 97 437 b 96 365 100 413 99 389 b 95 557 86 428 86 493 b 93 477 105 532 93 504 b 97 437 93 463 95 450 z m 549 423 b 535 345 548 397 543 370 b 533 355 532 347 532 351 b 540 400 535 370 538 385 b 549 423 542 409 544 418 z "},"P":{"ha":649,"x_min":0,"x_max":0,"o":"m 92 948 b 89 972 89 956 88 964 b 60 975 82 981 69 981 b 42 947 52 969 46 958 b 11 778 20 895 14 836 b 78 69 -3 539 20 298 b 102 5 84 46 90 24 b 151 -30 113 -14 131 -29 b 194 8 171 -32 192 -15 b 206 -3 198 4 202 1 b 224 212 229 64 223 139 b 258 463 226 297 237 381 b 263 474 259 467 260 471 b 289 468 270 481 281 474 b 439 439 332 434 388 423 b 556 553 490 455 534 498 b 580 644 568 582 575 613 b 582 851 592 712 600 784 b 455 979 564 918 515 977 b 338 905 409 980 366 947 b 278 761 310 863 294 811 b 231 612 262 711 247 662 b 214 670 216 624 214 649 b 207 792 213 711 210 751 b 191 887 205 824 201 857 b 136 958 180 918 162 945 b 123 942 133 951 128 946 b 118 964 122 950 122 958 b 100 969 113 970 105 973 b 92 948 99 961 96 954 z m 512 614 b 522 637 515 622 519 629 b 511 595 526 623 518 608 b 512 614 507 600 510 608 z m 493 915 b 506 891 500 909 503 900 b 429 517 551 764 518 606 b 367 503 413 500 388 497 b 307 535 345 509 326 522 b 283 576 294 544 278 559 b 326 714 296 623 310 669 b 448 911 352 791 386 871 b 493 915 462 920 480 926 z m 130 36 b 118 48 125 32 120 41 b 59 490 84 192 64 341 b 70 424 66 469 68 446 b 130 36 80 293 100 163 z m 168 523 b 168 540 167 529 165 535 b 167 558 171 545 168 552 b 174 572 166 564 168 574 b 180 378 177 507 179 442 b 178 341 180 365 181 353 b 170 381 171 352 170 367 b 171 489 171 417 171 453 b 168 523 171 500 171 512 z m 117 507 b 126 448 123 488 124 468 b 134 310 128 402 131 356 b 130 286 135 302 135 292 b 126 322 129 298 128 310 b 124 348 125 330 125 339 b 117 507 119 400 117 454 z m 312 817 b 312 828 310 819 311 824 b 362 912 324 859 341 888 b 361 901 365 909 363 904 b 312 817 345 873 329 845 z m 196 552 b 201 484 198 530 199 507 b 195 458 202 474 202 463 b 190 534 193 483 191 509 b 196 552 189 541 190 550 z m 362 838 b 361 847 360 839 359 844 b 369 845 364 849 368 849 b 362 838 367 843 365 840 z m 200 383 b 200 399 197 388 197 395 b 200 383 203 395 203 388 z m 132 283 b 132 272 135 281 135 275 b 132 283 129 275 129 281 z "},"Q":{"ha":633,"x_min":0,"x_max":0,"o":"m 440 4 b 508 24 464 6 488 9 b 416 92 501 73 454 107 b 554 387 485 169 528 277 b 565 688 577 485 587 590 b 405 903 543 786 485 875 b 367 923 391 908 377 911 b 178 940 317 978 237 979 b 48 756 119 901 78 830 b -4 391 3 644 -18 515 b 147 75 11 267 64 148 b 97 64 130 74 113 70 b 93 18 82 59 82 31 b 135 3 104 6 120 4 b 440 4 237 -5 339 -4 z m 387 134 b 348 101 376 120 364 106 b 268 142 319 91 289 115 b 169 438 206 220 172 329 b 241 748 166 547 194 656 b 303 501 232 660 255 568 b 496 395 351 435 423 395 b 387 134 481 297 442 206 z m 377 855 b 401 858 385 858 393 859 b 443 825 418 855 432 841 b 505 648 478 776 497 712 b 507 452 513 583 511 518 b 501 436 507 446 506 438 b 490 436 498 433 493 435 b 435 461 471 443 452 450 b 329 601 387 489 352 543 b 306 744 312 646 300 695 b 377 855 312 793 338 840 z m 45 367 b 31 443 33 389 31 416 b 69 683 31 525 44 607 b 72 675 71 682 73 678 b 45 367 44 577 35 470 z m 162 568 b 157 459 160 532 159 495 b 156 433 157 450 157 442 b 168 330 156 398 160 363 b 160 338 164 329 161 334 b 153 369 156 348 154 358 b 162 568 145 435 148 503 z m 129 446 b 135 420 133 438 134 429 b 142 369 137 403 140 386 b 144 334 144 357 145 345 b 131 381 137 349 134 365 b 129 446 128 403 124 425 z m 95 360 b 83 445 84 386 80 416 b 91 422 88 439 89 430 b 95 360 93 401 95 381 z m 265 787 b 265 776 268 784 268 778 b 265 787 262 778 262 784 z "},"R":{"ha":733,"x_min":0,"x_max":0,"o":"m 326 284 b 250 515 301 361 275 438 b 277 514 258 520 268 516 b 539 615 373 485 483 528 b 572 782 570 664 585 726 b 460 898 558 839 514 889 b 330 854 414 907 367 886 b 239 740 294 823 266 781 b 189 662 223 714 206 688 b 174 855 189 727 184 792 b 163 894 171 869 169 882 b 92 950 150 923 121 940 b 82 936 92 943 87 933 b 63 953 86 946 73 956 b 43 930 54 950 48 940 b 11 766 20 880 15 822 b 76 74 -3 533 19 299 b 94 17 81 54 86 35 b 124 -9 100 3 110 -11 b 47 576 77 182 51 379 b 53 622 47 592 47 608 b 132 -7 57 410 83 198 b 151 26 147 -10 161 13 b 164 2 155 18 160 10 b 175 33 168 12 171 22 b 192 18 180 28 186 23 b 193 450 192 162 193 306 b 222 352 203 417 213 385 b 282 199 238 299 254 246 b 403 101 310 153 352 113 b 577 168 466 87 532 119 b 673 345 622 217 650 281 b 674 371 676 354 679 364 b 651 372 669 378 658 377 b 638 348 644 366 641 357 b 580 229 622 307 603 267 b 527 161 566 204 549 179 b 450 132 506 142 478 130 b 368 187 417 135 388 158 b 326 284 349 216 337 250 z m 460 855 b 497 760 492 842 501 797 b 430 607 492 702 470 646 b 282 558 391 567 335 546 b 202 580 255 564 230 577 b 305 760 227 645 262 706 b 399 844 332 793 363 824 b 460 855 418 855 440 862 z m 109 446 b 106 433 109 441 109 436 b 99 558 102 474 100 516 b 101 607 99 574 99 591 b 108 552 108 590 108 571 b 109 446 108 517 109 482 z m 181 477 b 178 383 181 445 182 414 b 174 511 170 425 169 468 b 179 496 176 506 178 502 b 181 477 181 490 181 483 z m 151 437 b 150 506 148 460 148 483 b 157 471 157 496 159 483 b 151 437 155 460 153 448 z m 509 705 b 502 671 510 693 507 681 b 498 665 501 668 500 666 b 492 668 496 664 493 665 b 498 681 497 670 497 676 b 509 705 499 690 503 698 z m 151 563 b 151 623 148 582 148 603 b 151 563 155 603 155 582 z m 619 276 b 623 275 619 279 623 278 b 621 269 624 273 622 271 b 619 276 619 270 618 274 z "},"S":{"ha":464,"x_min":0,"x_max":0,"o":"m 127 105 b 114 183 112 126 110 156 b 186 303 121 233 148 279 b 113 274 162 318 132 298 b 63 144 85 239 65 193 b 112 17 61 96 79 45 b 206 -8 139 -6 174 -12 b 361 122 272 0 332 51 b 351 347 390 192 386 280 b 322 393 343 363 333 378 b 138 640 262 477 188 547 b 113 711 127 662 117 686 b 197 881 104 780 148 844 b 297 905 227 903 264 919 b 353 826 326 893 345 861 b 356 718 361 791 359 754 b 330 441 346 626 326 534 b 362 454 341 436 355 442 b 367 474 365 460 366 467 b 396 657 377 535 386 596 b 408 777 402 696 409 737 b 377 891 407 818 398 859 b 336 934 366 908 351 922 b 261 974 313 952 287 967 b 58 902 189 993 113 960 b -17 682 7 847 -29 763 b 12 596 -12 651 -1 623 b 243 246 73 466 174 370 b 276 153 258 217 273 187 b 274 121 277 142 277 131 b 198 76 264 87 228 76 b 127 105 172 76 144 81 z m 81 102 b 80 119 76 105 75 115 b 86 92 82 110 84 101 b 82 102 82 93 80 99 z m 105 774 b 108 778 103 776 107 780 b 103 758 104 772 103 765 b 104 775 98 762 98 772 z m 38 824 b 38 805 43 820 40 811 b 21 762 32 790 26 776 b 19 759 20 761 20 760 b 13 762 17 757 14 760 b 15 771 13 765 14 768 b 38 824 22 789 30 807 z m 285 230 b 280 236 283 232 281 234 b 292 232 284 238 289 237 b 291 217 295 228 295 221 b 284 230 287 219 285 225 z m 359 282 b 353 303 355 287 353 295 b 359 281 360 300 364 288 z m 54 772 b 59 766 56 775 61 770 b 50 766 57 763 52 763 b 54 772 51 768 53 770 z m 90 758 b 89 774 85 761 84 770 b 90 761 91 770 91 765 z m 345 552 b 346 547 347 552 347 547 b 346 552 344 547 344 552 z "},"T":{"ha":504,"x_min":0,"x_max":0,"o":"m 44 791 b 127 788 72 788 100 788 b 172 38 111 537 126 284 b 183 6 174 26 176 14 b 210 2 190 -3 203 -6 b 199 56 204 19 200 38 b 217 2 211 42 217 22 b 271 65 244 5 264 34 b 272 159 278 95 275 128 b 260 521 261 279 261 400 b 260 781 260 608 260 694 b 261 789 260 784 260 787 b 270 793 263 792 267 793 b 434 800 325 795 380 798 b 447 834 447 801 450 821 b 402 894 441 860 423 881 b 336 917 382 906 359 912 b 2 923 225 944 108 969 b -46 875 -18 914 -40 899 b -19 810 -52 850 -38 823 b 44 791 -1 796 22 793 z m 169 290 b 154 753 151 443 146 599 b 156 706 155 738 155 722 b 169 290 160 567 164 429 z m 248 457 b 243 442 248 452 247 446 b 243 701 243 529 243 615 b 248 685 247 698 248 691 b 248 457 248 609 248 533 z m 197 624 b 191 574 195 607 193 590 b 191 624 187 590 187 608 b 196 722 186 656 188 690 b 194 657 200 701 199 678 b 196 645 193 653 195 649 b 197 624 198 638 198 631 z m 230 578 b 226 563 230 573 229 566 b 226 717 225 614 225 666 b 230 700 229 713 230 706 b 230 578 230 659 230 619 z m -7 879 b 0 876 -5 878 -2 877 b -17 863 -5 871 -11 866 b -16 873 -19 866 -19 870 b -7 876 -14 875 -11 876 z m 193 105 b 192 86 194 99 194 92 b 192 107 187 92 187 102 z m 188 113 b 187 129 183 116 183 125 b 189 116 189 125 190 120 z "},"U":{"ha":667,"x_min":0,"x_max":0,"o":"m 196 4 b 296 57 234 0 270 24 b 356 174 322 91 339 133 b 432 365 381 238 407 301 b 519 32 449 250 478 137 b 553 1 526 15 538 -5 b 545 30 549 10 546 20 b 568 -2 552 19 560 9 b 580 20 574 2 579 11 b 593 23 584 19 589 20 b 594 47 593 31 594 39 b 605 29 598 41 602 35 b 602 112 615 55 608 85 b 586 465 579 227 582 347 b 595 826 589 585 592 706 b 526 890 597 867 559 903 b 472 807 498 879 482 842 b 431 547 447 724 433 636 b 428 491 431 528 431 509 b 413 442 425 474 419 458 b 256 108 369 325 317 213 b 221 737 214 312 226 526 b 202 878 220 785 218 834 b 116 966 186 922 155 960 b 106 950 116 959 112 952 b 87 970 110 962 98 973 b 65 946 77 968 71 957 b 4 666 22 864 9 764 b 40 248 -2 526 10 384 b 121 51 56 176 78 103 b 196 4 142 27 168 7 z m 510 500 b 511 599 504 533 508 566 b 519 663 514 621 516 642 b 519 620 520 649 520 634 b 518 606 519 615 519 611 b 517 572 518 595 517 583 b 510 500 516 548 515 523 z m 218 131 b 194 215 204 155 198 185 b 173 669 171 364 164 517 b 179 500 180 613 178 556 b 218 131 180 375 193 251 z m 240 112 b 220 187 228 134 224 161 b 197 656 200 342 192 499 b 202 588 202 634 202 611 b 240 112 204 428 217 269 z m 461 461 b 470 484 461 470 463 482 b 539 60 472 339 495 195 b 531 65 537 56 533 61 b 461 461 487 190 464 326 z m 154 228 b 156 179 157 212 161 195 b 116 590 124 312 110 452 b 125 467 123 550 123 509 b 154 228 128 387 138 307 z m 91 245 b 77 285 83 255 80 271 b 53 679 56 414 47 547 b 57 609 57 656 57 633 b 91 245 59 487 71 365 z m 572 384 b 573 341 576 370 577 355 b 565 364 566 344 565 355 b 568 609 566 446 567 528 b 575 628 568 616 569 625 b 575 409 575 555 575 482 b 572 395 575 404 575 399 b 572 384 570 392 571 388 z m 549 472 b 553 626 545 523 549 575 b 561 651 554 635 555 646 b 559 592 561 631 560 612 b 554 511 557 565 556 538 b 549 472 553 498 553 484 z m 485 700 b 476 624 482 675 479 649 b 472 616 476 621 474 617 b 468 627 468 616 467 623 b 481 717 472 657 477 687 b 485 700 486 715 486 706 z m 516 851 b 525 853 518 854 523 856 b 504 804 518 836 511 820 b 516 851 502 821 506 839 z m 571 329 b 572 313 576 327 577 317 b 571 327 570 317 570 322 z m 115 598 b 117 612 114 603 114 608 b 120 602 118 609 120 605 b 114 596 119 598 116 595 z m 467 576 b 469 584 466 579 467 582 b 471 577 470 582 472 579 b 467 576 471 574 467 573 z m 566 200 b 564 191 567 197 566 193 b 561 199 562 193 561 196 b 566 200 562 201 566 202 z m 577 656 b 577 667 574 658 574 665 b 577 656 580 665 580 658 z m 460 595 b 460 600 458 596 458 600 b 460 595 462 600 462 596 z m 485 747 b 489 746 486 750 490 749 b 485 746 488 746 486 746 z "},"V":{"ha":550,"x_min":0,"x_max":0,"o":"m 44 976 b 9 899 19 967 12 930 b 113 129 -15 636 5 359 b 173 35 129 94 148 60 b 265 -1 198 10 232 -7 b 350 71 300 4 331 35 b 386 192 369 107 378 150 b 490 851 428 410 442 635 b 491 895 493 865 496 881 b 461 904 486 908 469 915 b 457 894 459 901 458 897 b 325 155 391 654 383 397 b 297 96 320 133 313 109 b 155 829 196 318 191 580 b 131 919 150 860 145 892 b 68 972 118 947 95 970 b 53 962 62 972 53 969 b 44 976 50 966 47 971 z m 256 151 b 220 252 240 182 229 217 b 158 612 189 369 169 490 b 170 564 166 598 168 581 b 256 151 185 423 214 285 z m 140 637 b 230 173 155 479 186 323 b 187 310 209 215 198 262 b 140 637 163 417 138 526 z m 38 667 b 45 644 44 662 45 653 b 60 501 47 596 52 548 b 62 445 63 482 67 463 b 45 552 54 480 49 516 b 42 602 44 569 43 585 b 38 667 41 623 40 645 z m 109 464 b 98 543 105 491 102 517 b 98 597 96 561 93 580 b 117 445 104 546 111 495 b 109 464 112 448 110 457 z m 375 330 b 373 322 376 327 375 324 b 371 329 372 324 370 327 b 375 330 371 332 375 333 z m 378 355 b 378 359 376 355 376 359 b 377 355 379 359 379 355 z "},"W":{"ha":713,"x_min":0,"x_max":0,"o":"m 539 252 b 488 181 527 224 511 196 b 448 323 461 220 454 273 b 429 560 439 402 433 481 b 386 699 427 611 422 670 b 315 720 366 716 339 718 b 284 714 304 720 293 721 b 269 687 276 708 272 697 b 257 404 237 598 233 496 b 256 312 265 374 261 343 b 229 180 248 268 239 224 b 185 889 164 406 148 653 b 167 948 189 910 182 934 b 115 956 153 962 131 965 b 70 881 90 943 79 911 b 26 201 5 663 -22 424 b 74 73 36 155 49 110 b 176 18 99 37 138 12 b 263 96 214 23 246 56 b 291 228 281 136 287 182 b 301 265 292 241 293 255 b 372 153 317 221 342 183 b 422 120 387 138 403 125 b 541 173 465 107 510 135 b 635 398 592 232 619 315 b 637 815 662 534 663 678 b 608 909 631 848 623 880 b 574 943 600 925 589 940 b 546 911 559 946 541 929 b 599 579 575 804 597 692 b 539 252 602 466 584 351 z m 126 856 b 129 867 124 860 126 866 b 118 834 130 855 125 843 b 123 857 120 841 122 849 z m 72 188 b 107 916 21 427 33 686 b 119 925 109 923 115 930 b 100 127 34 674 27 385 b 72 188 84 141 77 165 z m 218 175 b 217 154 220 168 222 159 b 159 792 152 355 131 578 b 157 739 158 774 158 757 b 153 647 155 709 154 678 b 218 175 151 487 172 326 z m 409 565 b 428 399 416 510 422 454 b 437 322 431 373 434 347 b 451 230 442 291 446 260 b 429 328 438 260 434 294 b 410 487 423 381 416 434 b 409 565 406 513 403 540 z m 393 526 b 429 272 395 440 407 354 b 430 240 432 261 434 249 b 383 580 400 350 384 465 b 393 526 393 565 393 545 z m 345 500 b 352 440 347 480 350 460 b 368 349 356 409 362 379 b 378 308 371 336 374 322 b 384 282 380 299 382 291 b 340 549 350 364 334 457 b 345 500 341 532 343 516 z m 303 653 b 294 565 293 625 290 595 b 289 537 295 556 286 546 b 292 475 294 517 295 495 b 289 469 292 472 291 470 b 285 477 286 469 285 473 b 286 617 282 523 283 570 b 304 671 288 637 291 660 b 303 653 308 666 305 659 z m 193 172 b 206 132 200 160 204 146 b 186 175 196 143 189 159 b 190 175 187 176 189 176 b 193 172 191 175 192 173 z m 140 172 b 157 134 149 162 155 148 b 140 172 145 140 138 157 z m 146 790 b 151 829 142 803 144 818 b 152 818 153 826 153 822 b 146 790 150 809 148 799 z m 562 932 b 566 922 566 935 570 924 b 562 932 561 919 557 929 z m 612 487 b 612 509 607 493 607 503 b 613 489 614 502 614 496 z m 142 785 b 142 775 145 783 145 777 b 142 785 139 777 139 783 z m 160 796 b 160 807 157 799 157 805 b 160 796 163 805 163 799 z m 117 826 b 122 825 117 829 121 828 b 119 818 122 823 121 820 b 117 826 117 820 116 823 z m 135 903 b 139 901 136 905 140 904 b 135 901 138 901 136 901 z m 311 707 b 315 705 312 709 316 708 b 311 705 314 705 312 705 z m 313 351 b 313 355 311 351 311 355 b 313 351 315 355 315 351 z "},"X":{"ha":536,"x_min":0,"x_max":0,"o":"m 30 889 b 120 493 38 753 79 622 b 107 423 128 470 117 445 b -24 70 56 309 12 191 b 13 84 -11 65 4 73 b 33 123 23 95 28 109 b 156 397 66 218 108 310 b 321 71 206 286 256 174 b 373 15 335 49 351 26 b 439 33 396 4 427 9 b 454 29 444 31 449 30 b 458 58 455 38 457 48 b 480 70 466 51 479 60 b 472 101 482 81 477 92 b 295 598 392 257 343 428 b 296 633 292 610 289 624 b 467 859 353 708 410 784 b 472 868 469 862 471 864 b 459 888 474 876 466 885 b 406 865 440 894 421 879 b 262 697 353 814 305 758 b 226 787 250 727 238 757 b 113 950 200 850 170 919 b 72 943 99 957 77 959 b 64 958 69 948 67 953 b 33 933 50 958 38 947 b 30 889 28 919 29 904 z m 267 259 b 267 257 269 260 268 257 b 264 260 266 257 265 258 b 239 314 256 278 248 296 b 244 312 240 317 243 314 b 257 282 249 302 253 292 b 267 259 263 277 267 268 z m 361 342 b 441 118 388 267 415 193 b 287 548 376 255 324 399 b 336 412 303 502 320 457 b 361 342 344 389 353 365 z m 261 565 b 295 466 273 532 284 499 b 409 166 329 364 363 262 b 417 132 414 155 419 144 b 367 242 400 168 383 205 b 343 300 359 261 351 281 b 261 565 309 386 282 475 z m 342 196 b 245 436 307 275 274 355 b 245 454 243 442 241 450 b 344 208 276 371 309 289 b 342 196 346 204 347 197 z m 286 218 b 286 222 284 218 284 222 b 286 218 288 222 287 218 z "},"Y":{"ha":556,"x_min":0,"x_max":0,"o":"m 294 529 b 331 651 306 569 319 610 b 351 196 347 500 364 348 b 307 81 347 152 337 101 b 209 44 276 61 232 80 b 216 13 204 34 209 20 b 242 5 223 6 233 5 b 484 243 349 3 453 105 b 499 387 495 290 498 339 b 455 890 503 557 489 727 b 429 968 450 918 443 946 b 372 994 416 990 392 1003 b 334 907 348 981 338 941 b 326 791 329 868 326 830 b 316 747 325 776 321 761 b 199 415 282 633 247 519 b 180 401 194 406 187 396 b 174 412 177 403 175 408 b 140 810 135 536 142 676 b 125 915 140 846 138 884 b 60 964 113 947 86 972 b 6 877 31 956 15 915 b 14 480 -26 749 -25 605 b 67 373 27 440 43 402 b 154 329 91 345 122 326 b 244 400 190 332 222 362 b 294 529 267 438 280 484 z m 21 702 b 24 803 17 735 19 769 b 33 862 26 823 29 843 b 45 914 36 880 40 897 b 53 922 46 919 49 925 b 53 909 56 920 54 914 b 35 847 44 890 38 869 b 28 791 31 829 30 810 b 21 702 26 761 23 731 z m 391 374 b 384 447 389 399 387 423 b 378 504 382 466 380 485 b 369 596 375 535 372 566 b 368 656 367 616 365 636 b 374 633 372 650 373 641 b 388 500 379 588 383 544 b 394 428 391 476 393 452 b 391 374 394 410 393 392 z m 472 661 b 481 605 478 644 480 624 b 487 504 483 572 485 538 b 486 490 488 500 488 494 b 479 528 481 502 480 515 b 470 642 476 566 473 604 b 472 661 470 649 469 656 z m 454 675 b 459 569 458 640 466 604 b 456 590 458 576 457 583 b 454 675 453 618 449 647 z m 125 705 b 125 599 129 670 129 634 b 125 705 121 634 121 670 z m 418 570 b 413 645 414 595 412 620 b 418 628 415 640 416 634 b 418 570 422 609 423 589 z m 107 617 b 106 717 103 650 103 684 b 109 699 109 712 109 705 b 107 617 110 672 110 644 z m 129 576 b 129 595 126 581 126 590 b 130 576 133 590 133 581 z "},"Z":{"ha":632,"x_min":0,"x_max":0,"o":"m 72 67 b 305 27 138 8 229 -7 b 372 67 329 37 350 52 b 533 195 427 105 481 148 b 549 226 541 203 550 213 b 543 240 549 231 546 236 b 503 251 533 252 517 255 b 465 228 490 247 477 237 b 279 114 406 183 344 145 b 204 99 255 102 229 91 b 304 423 187 217 237 336 b 524 657 371 510 454 575 b 574 755 547 684 570 716 b 552 853 578 789 567 823 b 426 973 523 910 479 957 b 350 980 401 981 375 981 b 128 911 273 975 197 952 b 22 830 90 889 54 862 b 2 793 12 820 2 808 b 27 776 2 777 19 764 b 414 909 133 886 278 936 b 191 657 354 809 266 741 b 34 418 129 588 76 507 b -12 231 6 361 -17 297 b 72 67 -6 164 28 105 z m 155 391 b 133 330 148 370 140 350 b 128 323 132 327 131 324 b 123 325 126 321 123 322 b 123 329 122 326 123 328 b 155 391 130 353 138 379 z m 191 346 b 209 368 196 355 201 364 b 175 282 199 338 188 310 b 173 294 171 284 172 290 b 191 346 177 312 183 330 z m 338 722 b 420 830 366 758 393 794 b 429 831 423 833 428 836 b 352 728 408 792 382 757 b 338 722 348 725 343 721 z m 67 350 b 66 367 62 351 63 361 b 242 623 109 466 170 554 b 226 601 237 615 231 608 b 122 450 190 552 154 503 b 67 350 102 418 84 384 z m 319 480 b 313 461 321 473 317 466 b 197 270 267 405 228 341 b 203 305 192 281 197 295 b 319 480 235 370 274 429 z m 528 703 b 492 647 520 681 508 662 b 479 646 488 643 481 640 b 518 698 493 662 507 679 b 528 703 520 703 525 707 z m 497 719 b 509 733 501 723 505 728 b 488 707 510 719 499 705 b 497 719 491 711 494 715 z m 452 758 b 456 758 452 760 456 761 b 452 758 456 756 452 756 z "},"[":{"ha":283,"x_min":0,"x_max":0,"o":"m 70 19 b 113 0 83 5 96 -1 b 197 6 141 3 169 7 b 250 30 219 6 235 16 b 248 56 262 41 261 49 b 222 63 240 60 231 62 b 187 63 210 64 198 64 b 174 76 177 62 174 66 b 163 296 175 150 166 223 b 156 617 157 403 163 510 b 155 885 151 706 155 795 b 180 913 155 909 157 911 b 226 919 196 914 211 916 b 233 943 238 922 241 933 b 184 968 220 960 203 967 b 94 968 154 969 124 968 b 51 937 74 968 62 956 b 27 806 27 896 28 849 b 32 395 26 669 21 532 b 39 269 36 353 37 311 b 39 262 39 267 38 263 b 45 216 51 248 43 232 b 52 167 48 200 51 183 b 70 19 52 118 57 69 z m 81 195 b 90 78 84 156 87 117 b 87 71 91 76 88 73 b 84 80 86 74 85 77 b 78 192 74 117 79 154 b 75 195 77 195 75 195 b 72 227 74 206 73 216 b 76 228 72 227 75 228 b 78 199 77 218 77 209 b 81 195 79 195 81 195 z "},"]":{"ha":283,"x_min":0,"x_max":0,"o":"m 214 19 b 232 167 226 69 232 118 b 238 216 232 183 236 200 b 244 262 240 232 233 248 b 245 269 245 263 244 267 b 251 395 247 311 248 353 b 256 806 262 532 258 669 b 232 937 256 849 257 896 b 189 968 221 956 210 968 b 99 968 159 968 129 969 b 51 943 80 967 63 960 b 58 919 42 933 45 922 b 103 913 73 916 88 914 b 128 885 126 911 128 909 b 127 617 128 795 133 706 b 121 296 121 510 126 403 b 109 76 117 223 108 150 b 97 63 109 66 107 62 b 61 63 85 64 73 64 b 35 56 52 62 43 60 b 34 30 22 49 22 41 b 86 6 49 16 64 6 b 171 0 114 7 142 3 b 214 19 187 -1 201 5 z m 206 199 b 207 228 206 209 207 218 b 212 227 209 228 212 227 b 209 195 211 216 210 206 b 206 192 209 195 207 195 b 199 80 205 154 209 117 b 197 71 198 77 198 74 b 193 78 195 73 193 76 b 203 195 196 117 199 156 b 206 199 203 195 205 195 z "},"_":{"ha":319,"x_min":0,"x_max":0,"o":"m 104 63 b 44 45 83 61 63 55 b 37 24 36 41 32 30 b 63 5 45 16 53 8 b 104 0 76 1 90 1 b 206 9 138 -1 172 3 b 269 18 227 13 248 14 b 283 31 275 20 280 26 b 277 41 284 32 280 38 b 252 58 269 47 261 55 b 196 68 234 65 216 69 b 114 67 169 67 142 68 b 104 63 110 65 107 64 z "},"a":{"ha":718,"x_min":0,"x_max":0,"o":"m 758 349 b 723 363 751 359 731 353 b 675 256 707 327 691 292 b 546 37 640 179 604 100 b 539 32 544 35 542 33 b 528 43 533 31 530 38 b 513 371 491 147 514 261 b 493 457 512 401 510 432 b 410 501 476 484 443 501 b 373 501 400 509 384 508 b 348 472 362 494 354 483 b 315 454 340 460 326 446 b 102 454 255 498 166 493 b -22 280 38 416 -2 349 b -32 188 -31 250 -36 219 b 12 107 -28 157 -13 126 b 110 83 39 86 76 79 b 205 122 145 88 177 103 b 306 234 247 151 282 190 b 365 59 316 173 328 110 b 532 -9 401 8 470 -28 b 636 85 579 5 610 45 b 757 332 686 162 727 245 b 758 349 759 337 761 344 z m -5 206 b -6 238 -7 216 -7 227 b 8 293 -5 257 2 275 b 12 297 8 295 10 298 b -5 206 8 266 3 236 z m 27 207 b 25 222 24 212 24 217 l 26 224 b 27 207 31 219 31 212 z m 54 220 b 52 226 53 222 51 224 b 56 226 52 228 56 229 l 56 226 b 54 220 57 224 56 221 z m 70 223 b 65 222 70 221 66 220 l 66 222 b 68 229 65 225 66 227 b 70 223 69 227 71 225 z m 71 237 l 70 239 b 72 250 69 243 70 247 b 71 237 76 247 75 240 z m 309 366 b 290 332 306 353 298 343 b 251 280 277 315 264 297 b 167 169 223 243 195 206 b 117 141 155 153 137 135 b 96 164 107 145 101 155 b 89 276 80 199 79 239 b 146 375 99 312 120 346 b 203 420 162 393 180 410 b 275 423 225 430 252 433 b 309 366 298 413 314 389 z m 387 456 b 369 424 381 445 375 435 b 379 460 366 437 372 449 b 386 468 381 463 383 466 b 395 466 389 469 393 469 b 387 456 391 463 389 459 z m 415 181 b 410 252 410 205 408 229 b 415 234 412 246 414 240 b 415 181 419 217 419 199 z m 474 113 b 464 155 468 126 466 141 b 458 234 461 181 458 208 b 463 299 458 255 461 277 b 467 311 464 303 465 307 b 467 263 467 295 467 279 b 473 150 467 225 466 187 b 474 113 475 138 478 125 z m 491 107 b 483 202 486 139 485 171 b 482 222 483 209 483 215 b 482 247 482 230 482 239 b 484 263 482 252 483 258 b 489 303 485 276 487 290 b 489 258 489 288 489 273 b 494 135 489 217 490 175 b 503 83 496 117 499 100 b 491 107 495 88 492 98 z "},"b":{"ha":500,"x_min":0,"x_max":0,"o":"m 460 341 b 380 425 450 380 422 419 b 290 396 348 430 315 415 b 152 192 222 345 186 267 b 160 721 160 368 163 545 b 141 794 160 747 158 774 b 98 824 130 808 114 816 b 74 831 90 828 82 831 b 60 815 66 830 58 823 b 51 836 54 821 51 828 b 9 818 35 840 18 831 b -5 774 -1 805 -3 789 b 13 248 -28 600 -8 423 b 51 67 20 187 28 125 b 88 22 59 49 69 30 b 134 45 107 14 136 26 b 141 33 137 41 139 37 b 153 81 155 44 152 64 b 184 114 153 98 167 120 b 395 153 255 91 339 106 b 460 341 451 199 477 274 z m 63 113 b 38 363 46 196 37 279 b 40 341 38 356 39 348 b 77 78 50 253 62 165 b 63 113 69 88 66 101 z m 82 290 b 82 400 79 326 79 364 b 82 290 86 364 86 326 z m 124 302 b 118 328 122 311 120 319 b 119 345 116 334 115 341 b 116 368 124 351 119 360 b 122 411 113 382 123 396 b 125 437 122 420 118 431 b 124 302 126 392 126 347 z m 142 244 b 135 360 140 283 138 321 b 137 388 135 369 135 379 b 142 446 143 407 134 428 b 142 244 145 379 144 311 z m 385 199 l 383 199 b 378 197 383 197 378 195 b 390 212 382 202 386 207 b 385 199 389 208 387 203 z m 354 190 b 184 141 312 147 244 124 b 176 146 181 142 177 143 b 176 156 174 149 175 153 b 307 358 204 231 243 305 b 358 391 322 371 339 383 b 377 396 364 394 371 396 b 409 351 399 395 408 371 b 354 190 414 293 396 233 z "},"c":{"ha":426,"x_min":0,"x_max":0,"o":"m 439 285 b 414 259 428 280 421 269 b 213 59 359 178 290 110 b 193 51 207 55 200 51 b 173 63 186 51 179 57 b 123 240 132 107 122 177 b 176 408 124 302 136 368 b 221 426 188 420 205 430 b 267 388 239 422 252 401 b 316 394 282 375 310 373 b 307 427 319 406 313 418 b 190 505 280 471 236 500 b 62 454 144 510 96 491 b 3 327 31 420 13 374 b 11 121 -13 259 -14 185 b 150 0 36 57 89 5 b 322 89 214 -5 274 40 b 468 273 377 144 426 206 b 439 285 464 286 450 290 z m 32 307 b 27 290 30 301 28 296 b 69 411 28 335 43 379 b 68 399 72 408 70 403 b 32 307 53 370 41 339 z m 79 343 b 68 301 75 329 72 315 b 77 349 64 317 67 336 b 79 343 79 349 79 345 z m 100 292 b 98 308 96 295 97 302 b 104 340 100 319 102 330 b 113 348 105 345 110 352 b 100 292 106 330 102 311 z m 116 328 b 125 345 117 335 121 340 b 118 312 124 334 122 323 b 116 328 115 317 115 323 z "},"d":{"ha":496,"x_min":0,"x_max":0,"o":"m 506 219 b 481 173 494 201 490 190 b 393 115 461 136 408 33 b 385 261 383 163 385 212 b 379 748 384 423 390 586 b 357 824 378 775 375 805 b 295 816 339 843 302 842 b 241 401 256 682 238 541 b 149 433 212 416 181 427 b 105 437 135 436 120 438 b 19 383 71 433 42 410 b -48 205 -22 335 -46 271 b 19 61 -50 148 -30 84 b 128 78 54 45 96 55 b 209 165 160 100 185 133 b 243 211 220 180 231 195 b 264 103 245 174 252 138 b 313 31 274 75 288 46 b 421 44 346 10 390 20 b 493 139 452 68 473 104 b 523 212 506 162 519 186 b 506 219 525 222 512 227 z m -8 288 b -28 207 -15 261 -22 234 b -22 267 -30 227 -28 248 b -3 309 -17 282 -10 295 z m 220 246 b 121 116 190 201 157 157 b 70 94 108 100 88 83 b 57 109 65 97 61 103 b 63 303 25 167 35 243 b 102 359 73 324 85 344 b 163 375 119 373 142 381 b 219 326 187 369 204 347 b 237 288 227 315 236 302 b 220 246 237 272 229 259 z m 272 478 b 276 492 272 483 273 488 b 276 368 277 450 277 409 b 272 385 272 373 272 379 b 272 478 272 416 272 447 z m 297 106 b 283 150 288 118 285 134 b 272 257 278 185 274 221 b 274 266 272 260 272 263 b 280 264 276 268 280 268 b 285 210 282 246 283 228 b 297 125 287 181 289 152 b 297 106 299 119 301 111 z m 315 387 b 315 453 312 409 312 432 b 315 387 319 432 319 409 z m 338 102 b 331 114 334 104 331 109 l 331 115 b 338 102 337 116 342 107 z m 351 374 b 349 380 349 376 349 378 b 349 440 349 400 349 420 b 358 456 349 447 351 456 b 358 384 358 432 358 408 b 351 374 358 378 354 371 z m 376 301 b 367 320 369 303 367 313 b 368 443 367 361 367 402 b 376 382 376 424 376 403 b 376 301 377 355 376 328 z "},"e":{"ha":436,"x_min":0,"x_max":0,"o":"m 476 292 b 448 311 476 307 460 315 b 418 284 435 307 426 295 b 217 62 359 201 300 112 b 197 55 211 58 204 54 b 168 80 184 55 175 67 b 147 182 152 110 145 146 b 153 200 147 188 148 196 b 166 205 156 203 162 204 b 209 236 183 209 197 222 b 258 342 233 266 252 302 b 232 455 264 381 256 425 b 101 479 200 494 144 501 b 9 361 58 457 27 411 b 18 124 -18 285 -17 195 b 193 9 52 52 122 3 b 322 75 240 12 285 39 b 419 198 359 110 389 154 b 467 268 435 221 451 245 b 476 292 472 275 477 283 z m 228 398 b 235 389 232 399 236 393 b 225 387 233 385 227 384 b 228 398 222 391 225 397 z m 71 386 b 38 314 58 364 46 340 b 40 345 33 324 36 335 b 72 401 48 365 59 384 b 71 386 77 398 74 391 z m 96 348 b 81 304 94 332 89 317 b 95 354 79 322 85 341 b 96 348 97 352 97 350 z m 207 377 b 156 235 208 325 189 272 b 151 233 154 234 153 232 b 148 241 148 234 148 238 b 198 401 156 298 173 352 b 207 377 205 397 207 386 z m 116 284 b 140 365 121 312 130 339 b 140 343 144 359 142 350 b 119 274 133 320 126 297 b 116 284 116 277 116 281 z m 168 377 b 180 382 171 382 177 386 b 161 347 171 373 166 360 b 156 332 160 342 158 337 b 134 273 149 312 142 292 b 168 377 138 310 149 347 z "},"f":{"ha":307,"x_min":0,"x_max":0,"o":"m 328 355 b 303 358 320 359 311 358 b 175 346 260 355 217 351 b 276 573 232 410 274 489 b 161 785 279 656 238 743 b 84 796 138 798 109 807 b 50 760 69 789 58 775 b 25 674 36 734 30 704 b 24 98 -8 484 -8 288 b 54 18 29 70 35 40 b 134 -7 72 -5 107 -19 b 177 49 157 4 168 27 b 215 184 195 92 212 137 b 170 313 218 230 205 280 b 338 337 226 317 283 325 b 328 355 341 344 335 352 z m 88 769 b 79 765 86 767 82 766 l 77 766 b 88 778 80 771 83 775 b 88 769 91 776 90 772 z m 142 165 b 139 180 141 170 140 175 b 137 243 136 201 133 222 b 147 185 143 224 145 204 b 142 165 148 178 148 169 z m 155 119 b 153 131 152 122 152 127 b 161 162 154 142 157 152 b 155 119 162 147 160 133 z m 128 359 b 125 698 125 472 124 585 b 140 751 125 716 126 737 b 149 756 142 754 145 756 b 157 754 151 756 154 755 b 236 612 208 725 235 668 b 194 452 238 557 218 503 b 128 359 178 417 159 382 z "},"g":{"ha":478,"x_min":0,"x_max":0,"o":"m 201 439 b 116 480 176 459 147 476 b 16 449 80 485 43 472 b -38 357 -12 425 -30 392 b -21 251 -47 321 -45 279 b 87 221 4 221 48 212 b 188 277 125 229 158 252 b 166 179 207 245 197 213 b 88 72 128 143 104 106 b 142 -304 30 -53 51 -201 b 178 -339 154 -318 166 -329 b 236 -369 195 -353 214 -367 b 307 -319 266 -371 294 -347 b 320 -229 319 -291 320 -260 b 329 226 322 -78 325 74 b 513 317 390 256 451 286 b 517 320 515 317 516 319 b 516 330 521 325 518 328 b 445 329 498 348 468 339 b 328 277 406 312 367 294 b 318 369 324 308 321 339 b 255 498 313 419 304 477 b 226 498 246 503 235 503 b 201 439 204 486 211 459 z m 96 -72 b 191 147 97 8 134 112 b 232 -298 205 -1 218 -150 b 96 -72 144 -263 97 -149 z m 47 289 b 92 409 39 333 57 381 b 158 422 111 424 137 433 b 177 406 166 418 172 412 b 187 354 191 392 205 372 b 179 348 185 352 182 350 b 63 281 141 324 102 302 b 53 279 60 279 56 277 b 47 289 49 280 47 285 z m 224 113 b 224 134 220 120 221 127 b 230 103 228 124 229 113 b 239 5 233 70 236 37 b 238 -21 240 -4 241 -13 b 232 -4 233 -18 232 -10 b 224 89 229 27 226 58 b 226 104 223 93 224 100 b 224 113 227 107 225 110 z m 315 157 b 315 78 318 131 318 105 b 309 122 311 93 306 108 b 315 157 311 134 313 145 z m 20 417 b 6 399 15 411 11 405 b -3 397 3 396 -2 393 b 21 426 3 408 11 418 b 20 417 24 424 22 420 z m 296 118 b 296 166 293 134 293 150 b 296 118 300 150 300 134 z m 265 120 b 265 124 263 120 263 124 b 265 120 267 124 267 120 z "},"h":{"ha":469,"x_min":0,"x_max":0,"o":"m 467 244 b 445 212 457 236 451 224 b 348 62 417 158 385 108 b 328 49 342 55 336 48 b 311 80 317 50 312 67 b 314 321 304 160 305 241 b 316 393 317 345 321 370 b 274 440 311 417 295 439 b 221 401 252 441 234 421 b 125 197 180 340 152 268 b 142 666 137 353 148 510 b 131 740 141 691 139 717 b 85 788 122 763 106 783 b 33 755 64 794 39 780 b 30 50 -20 526 -4 283 b 62 1 33 27 43 -1 b 61 21 57 6 57 15 b 69 0 64 14 66 7 b 84 14 74 -6 84 4 b 84 41 84 23 80 33 b 92 8 87 30 89 19 b 133 42 109 10 124 25 b 149 100 141 60 145 80 b 257 365 169 195 206 286 b 254 98 245 276 236 185 b 294 26 260 69 271 39 b 361 35 315 14 341 20 b 411 94 382 50 397 72 b 499 242 443 142 472 191 b 467 244 492 253 477 252 z m 44 132 b 28 392 36 218 30 305 b 37 517 27 434 26 477 b 45 233 33 422 39 328 b 52 121 47 196 49 159 b 44 132 47 120 45 127 z m 70 439 b 74 488 68 455 69 472 b 70 439 76 472 75 455 z m 105 421 b 109 481 103 441 104 461 b 105 421 112 461 110 440 z m 129 505 b 130 488 130 500 130 494 b 129 387 130 454 129 421 b 123 362 129 379 128 369 b 129 505 119 410 121 458 z "},"i":{"ha":239,"x_min":0,"x_max":0,"o":"m 279 292 b 263 309 278 301 271 309 b 243 283 252 309 247 294 b 147 70 223 206 190 134 b 130 61 142 64 136 57 b 106 410 106 174 115 293 b 88 462 104 429 101 450 b 64 476 81 469 72 473 b 8 468 45 482 22 484 b -3 437 2 460 -1 448 b 12 104 -22 327 -16 212 b 67 13 22 68 37 29 b 153 25 95 -2 128 6 b 211 102 178 44 196 73 b 276 265 238 154 260 209 b 279 292 279 274 281 283 z m 31 136 b 20 194 26 154 23 174 b 17 216 19 201 18 209 b 18 224 17 219 16 222 b 18 294 13 247 14 271 b 32 159 20 249 25 204 b 31 136 33 151 34 143 z m 47 272 b 53 283 47 277 49 285 b 55 277 55 282 55 279 b 54 211 57 255 56 233 b 47 272 52 231 49 252 z m 66 115 b 62 137 65 123 64 130 b 58 208 58 161 53 185 b 69 129 62 182 65 155 b 66 115 70 124 70 118 z m 72 106 b 72 111 70 106 70 110 b 72 106 74 110 74 106 z m 79 279 b 86 297 78 286 80 297 b 85 211 89 268 88 239 b 79 279 83 233 81 256 z m 92 140 b 90 157 87 144 86 152 b 96 131 93 148 95 140 b 93 141 93 132 90 137 z m 94 111 b 94 121 91 113 91 119 b 94 111 97 119 97 113 z m 99 299 b 99 211 103 270 103 240 b 99 299 95 240 95 270 z m 99 101 b 99 106 97 101 97 105 b 99 101 101 105 101 101 z m 104 171 b 101 189 101 176 100 183 l 101 189 b 104 202 100 194 101 199 b 104 171 107 192 107 181 z m 55 516 b 68 514 59 516 64 516 b 90 534 79 511 92 523 b 94 559 88 543 90 552 b 92 582 98 566 96 575 b 75 599 87 589 81 594 b 42 619 64 607 54 615 b 5 614 29 623 15 622 b -6 578 -5 605 -8 591 b 55 516 -3 547 24 520 z "},"j":{"ha":367,"x_min":0,"x_max":0,"o":"m 387 357 b 360 347 377 359 368 353 b 213 227 309 309 260 269 b 199 367 209 274 204 321 b 183 444 196 394 194 420 b 127 494 172 468 152 489 b 98 488 117 496 106 495 b 82 451 87 480 84 465 b 76 147 66 351 64 248 b 76 119 77 138 78 128 b 48 83 72 104 60 93 b -60 -15 11 52 -25 19 b -210 -207 -118 -72 -174 -133 b -230 -291 -223 -233 -234 -262 b -181 -367 -226 -322 -205 -348 b -99 -406 -156 -385 -127 -396 b 99 -474 -33 -430 33 -453 b 139 -482 112 -478 125 -482 b 212 -421 172 -481 200 -453 b 223 -320 225 -390 224 -354 b 212 155 219 -162 215 -3 b 221 190 211 168 212 182 b 395 335 277 241 335 290 b 387 357 403 341 397 356 z m -218 -282 b -218 -279 -220 -282 -220 -279 b -218 -282 -216 -279 -216 -282 z m 117 75 b 119 52 119 67 119 60 b 117 -22 119 28 118 3 b 110 95 109 17 107 56 b 117 75 114 89 116 82 z m 107 154 b 107 140 110 150 110 144 b 105 147 105 142 104 145 l 105 147 b 107 154 104 150 105 153 z m -75 -368 b -144 -335 -99 -360 -124 -351 b -181 -268 -165 -319 -181 -294 b -172 -228 -181 -254 -177 -241 b -84 -92 -153 -177 -120 -133 b 81 63 -34 -35 21 17 b 124 -419 85 -98 99 -259 b -75 -368 56 -407 -10 -390 z m 183 121 b 183 155 180 132 180 144 b 186 143 186 152 187 147 l 186 143 b 183 121 187 135 186 128 z m 203 75 b 196 169 196 106 194 138 b 203 149 199 163 201 156 b 204 130 204 143 204 136 b 203 75 204 111 204 93 z m 109 551 b 120 545 113 550 118 549 b 130 554 124 548 127 551 b 154 547 131 544 146 542 b 167 574 162 553 165 564 b 175 602 170 583 172 593 b 159 630 171 612 166 622 b 126 658 150 641 138 649 b 121 660 125 659 123 660 b 109 651 116 659 114 650 b 98 669 113 658 106 668 b 76 661 90 671 82 667 b 61 613 64 649 59 630 b 109 551 63 585 83 560 z "},"k":{"ha":426,"x_min":0,"x_max":0,"o":"m 445 319 b 423 297 435 316 429 306 b 380 231 409 275 394 253 b 298 144 358 196 333 160 b 273 141 290 141 281 138 b 259 153 267 143 263 148 b 188 272 228 187 204 228 b 314 446 255 298 306 368 b 304 499 316 465 315 485 b 243 503 290 517 262 516 b 202 447 225 490 213 468 b 137 326 180 407 158 366 b 132 710 146 454 142 582 b 108 798 130 741 126 774 b 34 805 90 822 52 830 b 24 779 29 798 26 788 b -6 542 4 702 -6 622 b -1 434 -5 506 -3 470 b 34 18 8 295 20 156 b 42 -6 35 9 37 0 b 62 -5 48 -13 59 -13 b 60 41 58 10 57 26 b 73 -9 64 24 69 7 b 109 35 93 -6 108 13 b 120 19 113 30 116 24 b 148 221 143 83 115 163 b 253 111 170 171 204 122 b 353 139 288 103 324 116 b 424 225 382 161 404 193 b 463 294 438 247 451 270 b 467 305 465 297 467 301 b 445 319 467 316 454 323 z m 39 304 b 28 440 35 349 32 395 b 29 450 28 443 29 446 b 28 458 30 452 29 455 b 28 495 24 470 24 483 b 34 463 32 486 33 474 b 39 410 36 445 37 427 b 44 346 40 388 42 367 b 48 248 46 314 47 281 b 39 304 42 266 40 285 z m 56 76 b 45 144 41 93 55 123 b 47 169 41 151 49 160 b 47 236 42 191 42 214 b 53 143 49 205 51 174 b 55 124 53 137 54 130 b 53 103 57 117 59 107 b 56 76 59 95 59 85 z m 73 439 b 71 462 71 446 70 454 l 71 462 b 74 475 70 467 71 472 b 73 439 77 463 77 451 z m 110 434 b 107 450 107 439 107 445 b 110 536 107 479 106 508 b 110 434 113 502 113 468 z m 125 394 b 125 521 125 437 125 479 b 121 537 125 527 125 534 b 129 538 123 540 127 541 b 130 532 130 536 130 534 b 130 408 130 491 130 449 b 125 394 130 403 129 397 z m 247 377 b 251 377 248 380 251 380 b 247 377 251 375 248 375 z m 181 321 b 259 459 204 369 230 415 b 265 457 260 461 264 460 b 264 449 265 455 264 452 b 256 430 261 443 259 437 b 197 327 242 392 227 353 b 181 321 193 323 187 319 z "},"l":{"ha":311,"x_min":0,"x_max":0,"o":"m 342 373 b 322 351 331 375 325 362 b 248 136 301 278 276 206 b 206 64 237 110 226 83 b 188 55 201 59 195 54 b 169 88 175 56 170 74 b 156 393 160 189 158 291 b 162 424 156 404 156 415 b 237 710 218 505 256 610 b 199 793 231 741 219 771 b 120 818 178 815 147 827 b 85 795 107 813 95 805 b 10 627 42 753 22 689 b 34 148 -21 469 -13 302 b 74 60 44 117 55 86 b 151 14 93 35 121 15 b 266 108 201 13 240 61 b 350 338 304 180 327 259 b 342 373 354 351 354 371 z m 121 753 b 121 749 123 753 123 749 b 121 753 119 749 119 753 z m 49 212 b 29 418 36 279 29 348 b 37 376 36 406 37 390 b 47 269 38 340 42 305 b 60 193 51 244 55 218 b 65 168 62 184 63 176 b 49 212 55 180 52 196 z m 109 121 b 78 338 92 192 81 264 b 80 352 78 342 78 348 b 86 304 82 336 84 320 b 95 237 89 281 92 259 b 101 199 97 224 99 212 b 112 114 105 171 108 142 b 109 121 110 116 110 118 z m 112 779 b 76 734 100 764 88 749 b 78 748 71 737 74 744 b 112 788 88 762 100 776 b 114 784 113 787 114 785 b 112 779 114 782 113 780 z m 126 242 b 119 362 120 281 118 322 b 121 377 119 368 119 373 b 124 357 122 371 123 364 b 126 242 129 319 129 280 z m 147 183 b 136 377 142 248 138 312 b 140 392 136 382 136 389 b 146 321 143 369 145 345 b 151 198 148 280 150 239 b 147 183 151 193 151 187 z m 152 521 b 154 548 149 529 149 540 b 154 571 154 555 154 563 b 154 606 154 582 154 594 b 168 735 154 649 155 694 b 170 739 168 737 169 738 b 177 732 174 741 176 736 b 181 704 178 723 180 714 b 186 656 184 688 187 672 b 185 638 186 650 186 644 b 161 532 181 602 173 566 b 152 521 159 528 157 522 z m 159 496 l 160 496 b 164 498 158 499 163 501 b 157 491 161 497 159 494 b 159 496 155 491 157 497 z "},"m":{"ha":629,"x_min":0,"x_max":0,"o":"m 637 305 b 616 273 628 297 622 285 b 497 98 583 210 543 151 b 522 312 498 170 518 240 b 446 499 525 384 504 465 b 399 490 431 508 412 502 b 371 443 386 477 378 460 b 285 252 342 380 314 316 b 272 405 281 303 276 354 b 262 447 271 419 269 435 b 228 459 255 459 239 466 b 214 442 222 456 218 449 b 142 175 172 361 156 267 b 124 405 136 252 130 328 b 97 484 122 434 118 466 b 68 498 88 491 78 495 b 20 494 52 503 33 505 b 4 449 8 483 6 465 b 44 40 -8 311 6 171 b 77 9 49 23 62 2 b 32 307 52 107 27 206 b 83 7 44 206 61 106 b 160 71 117 5 147 36 b 178 181 173 105 175 144 b 226 392 185 254 201 325 b 232 294 228 359 230 326 b 244 233 234 273 235 251 b 290 204 253 214 271 200 b 332 254 311 208 323 232 b 386 382 350 296 368 339 b 399 144 381 302 376 220 b 455 68 408 112 426 79 b 521 81 477 61 502 68 b 569 135 540 95 555 115 b 671 309 608 190 642 248 b 637 305 661 317 647 313 z m 68 292 b 74 241 76 277 78 258 b 68 292 68 257 66 275 z m 72 236 b 78 201 80 228 83 213 b 72 236 74 212 72 224 z m 82 156 b 82 182 79 164 79 174 b 82 156 86 174 86 164 z m 100 308 b 105 261 109 295 111 277 b 100 308 99 276 97 292 z m 107 231 b 112 226 110 232 111 228 b 109 195 113 215 112 205 b 107 231 107 207 106 219 z m 112 157 l 112 159 b 114 172 111 163 112 168 b 112 157 118 168 117 159 z m 114 176 b 112 184 112 178 111 181 l 112 184 b 117 183 112 186 116 186 b 114 176 117 181 116 178 z m 130 145 b 119 241 126 177 123 209 b 119 313 116 265 113 289 b 127 222 121 282 124 252 b 133 170 129 205 131 188 b 139 126 135 155 137 141 b 130 145 133 128 131 137 z "},"n":{"ha":468,"x_min":0,"x_max":0,"o":"m 508 262 b 486 270 506 272 494 275 b 469 247 478 265 474 256 b 363 68 440 183 404 123 b 321 75 353 54 330 60 b 312 129 311 91 312 111 b 321 376 314 212 317 294 b 315 436 322 397 322 418 b 272 466 308 455 290 470 b 242 437 259 463 250 450 b 131 184 192 361 158 274 b 120 186 129 179 121 180 l 113 369 b 104 435 112 391 111 414 b 64 481 97 456 83 475 b 15 456 45 487 21 477 b 23 96 -18 340 1 215 b 43 35 27 75 31 52 b 96 19 56 18 79 8 b 110 28 101 22 105 26 b 118 28 112 29 115 29 b 125 31 121 26 125 28 b 258 389 153 157 198 278 b 258 389 258 389 258 389 b 268 386 261 394 268 392 b 268 143 264 305 264 224 b 299 49 270 109 274 70 b 387 54 323 28 361 34 b 445 135 412 74 429 105 b 504 245 465 172 484 208 b 508 262 506 250 509 256 z m 128 135 b 128 139 127 135 126 139 b 128 135 130 139 130 135 z "},"o":{"ha":400,"x_min":0,"x_max":0,"o":"m 405 335 b 302 302 370 324 336 313 b 241 459 293 360 281 423 b 169 495 220 478 194 486 b 117 504 152 500 134 506 b 50 455 90 500 67 479 b 9 151 -10 373 -27 251 b 86 50 24 109 50 69 b 236 91 136 24 197 46 b 299 265 275 136 293 201 b 331 286 301 280 318 284 b 440 327 369 290 407 304 b 405 335 435 341 417 340 z m 33 308 b 32 343 27 318 29 331 b 78 441 41 379 57 413 b 88 444 81 445 86 448 b 74 420 83 436 79 428 b 66 405 71 415 68 410 b 33 308 50 375 38 342 z m 72 298 b 75 339 67 311 71 326 b 86 379 79 353 82 366 b 96 386 88 385 94 391 b 72 298 87 357 79 328 z m 114 339 b 139 405 120 363 126 387 b 139 390 143 402 141 395 b 104 233 119 342 107 288 b 114 339 97 268 106 305 z m 119 233 b 117 264 113 242 115 253 b 136 355 122 295 128 325 b 149 383 139 366 142 377 b 148 368 152 379 150 373 b 131 307 139 349 134 328 b 119 233 126 283 122 258 z m 248 182 b 246 189 247 184 245 186 b 251 190 246 191 250 192 l 250 190 b 248 182 251 187 250 183 z m 253 270 b 168 84 247 198 216 129 b 157 81 165 81 160 78 b 132 173 137 105 133 140 b 156 358 130 236 139 299 b 250 279 175 316 211 286 b 253 270 253 279 254 274 z m 257 308 b 236 309 254 300 243 303 b 189 402 210 330 193 365 b 211 438 198 412 206 424 b 223 435 213 444 220 440 b 259 317 244 401 257 359 b 257 308 259 314 259 310 z "},"p":{"ha":539,"x_min":0,"x_max":0,"o":"m 472 393 b 392 465 458 428 429 456 b 292 444 358 473 322 463 b 219 369 263 424 240 397 b 174 289 200 345 182 319 b 169 384 172 321 170 353 b 152 457 168 410 166 436 b 98 495 140 476 119 487 b 55 499 85 501 69 505 b 33 477 45 495 38 486 b 17 424 24 461 20 442 b 59 -177 -19 225 20 22 b 89 -298 66 -217 74 -258 b 100 -316 91 -304 94 -311 b 119 -317 105 -321 114 -322 b 96 -202 106 -280 99 -241 b 127 -320 107 -241 117 -280 b 150 -298 139 -320 150 -309 b 165 -299 151 -304 161 -304 b 168 -280 169 -293 168 -286 b 190 -290 173 -287 181 -291 b 177 -67 185 -216 181 -141 b 172 141 173 3 169 72 b 303 134 215 134 259 127 b 475 284 382 146 452 206 b 472 393 485 319 486 358 z m 50 85 b 44 155 46 108 45 131 b 38 271 42 193 40 232 b 44 303 37 282 37 295 b 53 149 46 252 49 200 b 61 40 56 113 58 77 b 50 85 56 55 53 70 z m 88 239 b 88 291 84 256 84 274 b 88 239 92 274 92 256 z m 133 243 b 133 300 129 262 129 281 b 133 243 137 281 137 262 z m 156 222 b 150 230 153 223 151 226 b 149 243 149 234 149 238 b 150 305 148 263 149 284 b 156 222 159 278 161 249 z m 411 280 l 410 280 b 407 271 412 277 410 272 b 413 289 407 278 409 284 b 411 280 416 287 415 280 z m 416 358 b 358 239 408 314 390 271 b 272 192 335 215 304 199 b 191 212 243 186 210 190 b 189 219 189 214 188 217 b 351 425 219 304 270 387 b 390 432 363 431 377 436 b 417 401 404 428 414 415 b 416 358 421 387 419 372 z "},"q":{"ha":619,"x_min":0,"x_max":0,"o":"m 450 121 b 458 138 448 128 451 136 b 660 247 530 166 598 202 b 637 260 657 256 646 261 b 609 251 627 260 618 255 b 404 144 541 215 473 179 b 409 384 410 224 412 304 b 371 480 408 419 403 460 b 331 485 359 487 343 490 b 315 499 333 492 323 500 b 295 486 307 498 300 492 b 271 441 283 473 275 457 b 251 443 270 434 257 438 b 124 471 218 472 168 481 b 19 398 81 461 43 433 b -15 252 -12 356 -24 303 b 23 181 -11 225 0 198 b 155 185 60 153 117 160 b 242 286 194 210 218 248 b 322 -278 241 95 248 -100 b 350 -317 328 -293 336 -308 b 404 -320 365 -327 386 -327 b 448 -289 421 -314 436 -302 b 532 -96 499 -236 530 -167 b 462 103 535 -25 509 47 b 450 121 457 109 452 114 z m 31 378 b 11 346 25 367 18 357 b 34 389 12 363 21 379 b 31 378 36 386 34 381 z m 236 374 b 154 267 209 338 181 302 b 90 201 135 243 116 218 b 77 197 86 199 82 196 b 67 208 72 198 69 203 b 125 413 35 279 60 367 b 192 436 144 427 168 437 b 246 398 216 435 241 420 b 236 374 248 389 242 381 z m 328 125 b 326 86 331 112 330 98 b 328 125 323 99 324 112 z m 280 110 b 288 80 287 102 287 91 b 338 -276 294 -39 316 -158 b 280 110 301 -150 281 -20 z m 367 99 b 371 156 365 118 366 137 b 367 99 373 137 372 118 z m 383 52 b 383 94 380 66 381 80 b 391 197 385 128 388 163 b 391 93 391 163 391 128 b 387 36 391 74 391 55 b 383 52 385 42 384 47 z m 487 -145 l 488 -145 b 487 -157 491 -148 490 -154 b 487 -145 484 -154 484 -148 z m 480 -163 b 484 -164 481 -161 485 -162 b 480 -164 482 -164 481 -164 z m 459 -207 b 401 -298 448 -242 432 -276 b 390 -273 392 -293 390 -283 b 390 -221 389 -256 389 -238 b 402 120 393 -107 397 6 b 459 -207 480 29 494 -98 z "},"r":{"ha":389,"x_min":0,"x_max":0,"o":"m 426 321 b 395 322 419 329 404 328 b 375 298 385 316 380 307 b 215 41 325 211 273 125 b 207 90 207 56 207 73 b 207 285 207 155 207 220 b 180 435 207 336 207 389 b 36 504 154 481 94 516 b -38 488 11 498 -13 484 b -67 495 -48 490 -57 494 b -92 485 -77 497 -90 493 b -87 468 -94 479 -91 473 b 35 424 -61 436 -10 429 b 48 116 15 322 19 216 b 90 28 56 85 68 54 b 185 -13 113 3 148 -16 b 263 23 216 -12 243 4 b 310 90 283 43 297 67 b 423 289 348 157 386 223 b 426 321 429 299 435 312 z m 170 165 l 171 163 b 169 153 172 160 171 156 b 170 165 165 156 165 163 z m 167 132 b 168 150 166 138 166 144 b 173 114 177 139 178 126 b 168 132 172 120 170 126 z m 178 80 b 171 107 175 89 173 98 b 175 96 176 105 177 100 l 177 96 b 178 80 181 92 182 85 z m 192 71 b 184 150 187 97 185 124 b 186 188 184 163 184 176 b 188 176 187 184 188 180 b 194 108 191 153 194 131 b 192 71 194 96 193 84 z m 196 61 b 196 65 194 61 194 64 b 196 61 198 64 198 61 z m 399 311 b 397 316 397 312 396 314 l 397 316 b 401 316 397 318 401 318 b 399 311 402 314 401 312 z "},"s":{"ha":351,"x_min":0,"x_max":0,"o":"m 215 304 b 378 363 263 333 319 354 b 309 374 368 382 334 381 b 200 331 270 364 233 350 b 171 339 191 326 179 333 b 116 384 152 354 134 369 b 89 415 104 393 93 402 b 107 446 85 427 91 443 b 82 472 108 458 95 467 b -16 454 49 483 8 475 b -27 374 -40 433 -44 399 b 56 253 0 334 28 293 b 58 238 59 248 62 242 b -25 49 10 182 -19 116 b -4 -30 -27 22 -25 -8 b 79 -59 15 -50 48 -59 b 171 -41 111 -60 142 -51 b 327 83 240 -17 307 25 b 310 205 342 123 332 167 b 215 304 287 243 252 275 z m 17 439 b 8 438 15 437 11 436 b 10 443 6 439 7 443 l 10 444 b 20 446 11 447 17 449 b 17 439 19 444 19 441 z m 60 224 b 64 229 61 226 62 228 b 70 228 66 231 70 230 b 62 223 68 226 65 224 l 61 223 b 60 216 62 220 62 218 b 60 224 56 216 58 221 z m 158 36 b 146 18 156 30 151 24 b 114 -4 137 9 127 0 b 46 19 89 -12 59 1 b 35 82 33 38 32 61 b 84 201 40 124 57 165 b 91 203 86 203 90 205 b 152 87 115 165 135 127 b 158 36 159 70 165 53 z m 198 71 l 197 72 b 199 81 196 75 197 79 b 198 71 203 79 203 73 z m 292 124 b 287 123 292 122 288 121 l 288 123 b 290 129 287 125 288 127 b 292 124 291 127 293 125 z m 303 191 b 303 194 301 191 301 193 b 303 191 305 193 305 191 z m 312 107 b 310 116 310 109 309 113 l 310 116 b 312 133 309 121 310 127 b 312 107 322 127 322 113 z m 312 147 b 312 136 315 144 315 139 b 310 141 310 137 309 139 l 310 141 b 312 147 309 143 310 146 z "},"t":{"ha":389,"x_min":0,"x_max":0,"o":"m 427 391 b 399 391 421 402 401 403 b 345 245 381 342 363 293 b 245 39 319 173 292 99 b 238 33 243 37 241 34 b 222 45 231 31 225 38 b 196 184 200 87 197 137 b 196 626 192 332 194 479 b 199 635 196 629 196 633 b 207 637 201 637 204 637 b 352 637 255 637 304 637 b 344 664 356 646 352 657 b 317 676 337 671 327 674 b 222 686 286 684 254 687 b 186 696 209 686 194 686 b 180 725 180 703 180 715 b 131 820 180 763 164 802 b 36 791 98 839 48 826 b 4 698 25 760 14 729 b -19 674 0 687 -7 673 b -126 656 -56 676 -93 669 b -84 630 -118 641 -101 632 b -33 633 -67 627 -50 630 b -11 627 -25 634 -14 634 b -10 618 -10 624 -10 621 b -6 354 -11 530 -14 442 b 63 101 2 267 22 179 b 129 20 80 70 100 41 b 228 -3 157 -1 194 -12 b 315 75 267 7 294 41 b 404 291 355 142 380 217 b 425 356 411 312 418 334 b 427 391 429 367 433 380 z m 70 176 b 35 485 43 276 31 381 b 44 393 43 455 43 424 b 73 197 47 327 57 262 b 70 176 74 190 76 181 z m 72 777 b 70 788 70 781 69 785 l 70 788 b 82 800 74 792 78 796 b 72 777 83 791 79 782 z m 122 154 b 94 472 100 258 90 365 b 104 323 105 424 101 373 b 136 129 107 257 121 193 b 122 154 127 133 124 144 z m 154 435 b 154 350 150 407 149 378 b 148 320 152 340 150 330 b 148 508 146 383 146 445 b 154 450 150 489 152 470 b 154 435 155 445 155 440 z m 156 224 b 160 224 156 226 160 226 b 156 224 160 222 156 223 z m 174 102 b 160 182 166 128 161 155 b 166 169 164 178 165 173 b 179 96 170 144 175 120 b 174 102 176 95 175 99 z m 176 224 b 169 498 172 315 170 407 b 179 423 181 476 180 449 b 178 328 178 391 178 360 b 195 82 180 246 185 164 b 176 224 181 127 178 176 z "},"u":{"ha":749,"x_min":0,"x_max":0,"o":"m 757 278 b 738 249 748 270 743 259 b 628 55 709 181 672 116 b 593 30 619 43 608 30 b 570 37 585 29 577 33 b 538 146 536 61 535 107 b 545 331 542 208 544 270 b 539 389 545 351 545 370 b 500 431 533 407 520 425 b 446 413 480 438 455 431 b 248 68 389 294 323 178 b 214 68 241 57 223 59 b 202 103 205 77 203 91 b 196 366 192 190 193 278 b 190 433 197 388 198 412 b 75 497 175 476 123 505 b 10 418 37 491 19 452 b 14 149 -12 330 -11 237 b 58 56 24 117 37 84 b 148 0 80 29 112 7 b 286 46 198 -9 250 13 b 369 164 322 79 346 122 b 424 263 387 197 406 230 b 422 141 420 223 416 182 b 475 31 428 101 444 60 b 597 -2 506 2 554 -14 b 698 89 643 10 674 50 b 775 229 727 134 752 181 b 790 282 783 246 790 264 b 757 278 780 289 766 285 z m 76 111 b 46 195 57 135 51 165 b 57 439 34 276 29 361 b 77 455 60 448 67 459 b 47 339 54 421 49 379 b 76 111 44 262 54 185 z m 185 158 l 185 156 b 184 145 186 152 186 148 b 185 158 179 148 180 155 z m 173 367 b 181 280 180 338 181 309 b 180 224 182 261 181 242 b 172 261 172 234 172 248 b 173 367 172 296 172 331 z m 98 306 b 95 361 94 324 95 342 b 98 369 95 364 96 367 b 105 367 100 371 105 369 b 98 306 101 346 99 326 z m 129 95 b 123 107 127 99 125 103 b 115 150 117 121 110 136 b 128 117 119 139 124 128 b 129 95 131 109 133 101 z m 154 326 b 146 312 154 320 152 312 b 152 374 143 333 145 354 b 154 362 154 371 154 367 b 154 326 154 350 154 338 z m 171 89 b 164 117 166 98 163 108 b 177 83 173 108 175 95 b 171 89 174 84 172 86 z m 177 168 l 176 168 b 181 167 177 170 181 170 b 179 162 182 165 180 163 b 177 168 177 163 176 166 z m 191 76 b 190 79 190 77 190 78 b 183 112 188 90 185 101 b 184 142 181 122 179 133 b 197 76 188 120 193 98 b 191 76 196 74 193 74 z m 447 184 b 447 286 447 218 447 252 b 455 321 447 298 448 311 b 455 234 458 292 457 263 b 456 190 459 220 456 205 b 461 118 455 166 458 142 b 465 85 462 107 463 96 b 447 184 447 115 447 150 z m 486 266 b 486 274 483 268 483 272 b 486 266 489 272 489 268 z m 486 278 b 484 289 483 281 482 285 l 484 289 b 486 304 482 294 483 299 b 486 278 489 295 489 286 z m 517 261 b 517 312 514 278 514 295 b 517 261 521 295 521 278 z m 531 235 b 530 300 528 257 527 278 b 533 289 533 297 533 293 b 531 235 534 271 534 253 z "},"v":{"ha":588,"x_min":0,"x_max":0,"o":"m 611 301 b 586 297 602 302 594 299 b 458 286 545 285 501 281 b 459 452 476 340 484 400 b 308 525 434 504 368 543 b 280 511 298 522 288 517 b 267 412 251 487 254 445 b 372 287 286 362 323 317 b 373 272 376 284 375 277 b 241 75 346 199 300 131 b 223 114 230 85 226 100 b 142 437 198 222 195 337 b 109 481 133 453 123 469 b 42 508 91 497 67 507 b -6 494 26 517 4 508 b -15 445 -15 479 -16 462 b 42 171 -12 352 7 259 b 110 60 58 131 77 91 b 236 17 142 30 190 10 b 347 91 282 25 318 58 b 453 264 392 144 428 202 b 628 286 512 261 572 268 b 611 301 628 294 620 300 z m 297 490 b 288 490 295 488 290 488 b 295 497 290 492 293 494 b 298 491 296 495 297 493 z m 387 246 b 368 210 381 234 374 222 b 367 218 365 211 365 215 b 390 269 375 235 382 252 b 387 246 394 261 390 253 z m 389 316 b 387 314 389 315 388 314 b 382 317 385 313 383 315 b 341 428 355 348 341 388 b 349 459 341 439 343 450 b 379 472 355 468 367 475 b 398 456 388 470 395 464 b 404 432 402 448 403 440 b 406 411 404 425 405 418 b 407 396 406 406 407 401 b 389 316 409 369 403 341 z "},"w":{"ha":813,"x_min":0,"x_max":0,"o":"m 799 362 b 671 334 760 344 715 335 b 662 436 673 368 670 403 b 618 500 656 461 645 487 b 585 508 608 504 597 506 b 500 487 555 511 519 507 b 501 409 480 465 487 433 b 616 317 525 368 566 335 b 622 305 621 315 622 309 b 553 125 622 241 598 177 b 453 330 503 187 469 257 b 425 405 447 356 443 384 b 343 427 407 427 370 441 b 309 378 323 416 312 397 b 312 320 305 359 308 339 b 328 216 317 285 323 251 b 302 136 333 188 319 161 b 244 75 287 113 269 91 b 208 131 220 85 213 110 b 179 483 184 247 181 365 b 160 451 173 472 166 462 b 138 507 171 471 161 497 b 102 515 127 512 114 514 b 67 506 89 515 75 514 b 62 473 59 497 63 484 b 49 435 61 460 53 448 b 43 397 45 423 44 410 b 89 109 37 300 53 202 b 53 191 70 134 60 162 b 57 507 26 295 27 404 b 15 484 39 507 23 497 b 1 442 6 471 4 457 b 50 98 -16 326 -9 205 b 106 35 63 74 80 50 b 259 39 150 10 213 15 b 357 143 304 63 335 102 b 419 86 372 120 393 100 b 509 75 446 73 479 68 b 559 99 527 79 544 89 b 658 256 615 138 651 196 b 665 293 659 269 660 282 b 697 317 670 305 682 316 b 853 364 753 322 807 338 b 799 362 841 377 817 369 z m 511 458 b 511 465 508 459 508 464 b 511 458 514 464 514 459 z m 87 361 b 92 391 85 371 87 382 b 92 295 94 359 94 327 b 87 361 84 316 92 339 z m 96 274 b 93 280 93 275 92 277 l 93 280 b 95 293 92 284 93 289 b 96 274 99 287 99 280 z m 101 447 b 92 420 99 437 97 428 b 89 432 87 422 87 428 b 94 444 91 436 94 440 b 97 454 94 448 92 454 b 101 447 101 455 102 450 z m 145 462 b 146 454 147 460 147 457 b 140 431 144 446 142 439 b 145 462 136 441 137 453 z m 143 418 l 142 417 b 141 428 137 418 136 425 b 143 418 143 425 144 421 z m 136 373 b 141 406 138 384 139 395 b 145 293 142 368 144 331 b 146 277 145 288 145 282 b 139 351 133 300 140 326 b 136 365 138 355 138 360 b 136 373 135 367 135 370 z m 146 94 b 117 154 132 112 123 133 b 116 156 117 155 116 155 b 121 157 117 157 120 158 b 123 155 122 157 123 156 b 144 110 130 140 137 125 b 146 94 146 105 148 99 z m 145 255 b 145 263 142 257 142 261 b 145 255 148 261 148 257 z m 185 95 b 171 140 176 109 171 124 b 191 96 178 125 185 110 b 185 95 190 94 187 94 z m 186 149 b 156 394 169 230 159 312 b 167 355 166 384 167 369 b 209 89 171 266 185 177 b 186 149 195 107 190 128 z m 360 418 b 364 418 360 420 363 420 b 360 418 363 417 360 417 z m 621 350 b 571 415 598 367 580 390 b 582 469 565 433 565 456 b 612 435 597 461 606 448 b 621 393 617 421 619 407 b 626 356 623 380 624 368 b 621 350 626 353 624 348 z "},"x":{"ha":414,"x_min":0,"x_max":0,"o":"m 357 61 b 348 87 357 70 353 79 b 235 295 310 156 272 226 b 230 314 231 301 228 308 b 236 322 231 317 234 320 b 337 438 270 361 303 399 b 297 452 333 451 313 456 b 260 426 282 448 270 437 b 196 362 239 405 217 383 b 169 398 187 374 178 386 b 52 490 139 437 105 478 b 34 487 45 492 36 492 b -6 481 24 497 3 492 b -12 443 -14 470 -13 456 b 79 208 -2 360 30 280 b -5 57 48 158 20 108 b -7 31 -9 48 -13 38 b 22 30 -1 24 13 24 b 40 52 31 35 36 44 b 110 166 62 91 85 129 b 187 72 134 134 159 102 b 233 32 200 57 214 42 b 296 20 251 21 275 15 b 327 41 309 23 321 31 b 343 39 332 41 338 40 b 357 61 353 42 358 52 z "},"y":{"ha":571,"x_min":0,"x_max":0,"o":"m 600 350 b 577 338 591 351 584 344 b 430 185 526 290 477 239 b 403 450 429 274 420 363 b 389 494 400 465 396 481 b 355 517 381 507 369 517 b 314 472 335 517 319 495 b 308 402 309 449 311 425 b 290 344 305 382 297 363 b 167 99 256 258 221 171 b 147 426 161 208 154 317 b 141 466 146 440 146 454 b 92 500 132 487 112 501 b 65 506 88 512 72 515 b 47 517 63 514 54 518 b 29 502 40 515 34 509 b -1 379 5 469 0 423 b 7 218 -2 325 0 271 b 49 80 13 169 23 119 b 163 28 75 41 121 15 b 255 150 210 43 235 99 b 299 261 270 187 284 224 b 306 54 293 192 296 123 b 282 -12 310 30 295 7 b 159 -353 214 -111 154 -228 b 190 -433 160 -383 167 -417 b 262 -435 211 -449 239 -444 b 406 -291 325 -412 378 -359 b 438 -57 437 -219 439 -137 b 431 113 437 0 435 57 b 453 159 430 131 442 146 b 609 329 503 217 555 274 b 600 350 615 336 609 349 z m 49 465 b 49 468 48 465 48 468 b 49 465 51 468 51 465 z m 273 276 b 265 255 270 269 267 262 b 263 252 265 253 264 251 b 275 280 263 262 268 273 b 273 276 274 278 274 277 z m 277 284 b 276 290 275 283 275 288 b 282 305 278 295 280 300 b 285 307 282 307 285 309 b 277 284 282 300 279 292 z m 301 346 b 300 351 300 347 299 349 l 300 351 b 303 351 300 353 303 352 b 301 346 303 349 302 347 z m 181 -253 b 176 -284 178 -263 177 -273 b 171 -334 174 -301 173 -318 b 171 -345 171 -338 170 -342 b 172 -359 173 -350 176 -356 b 168 -347 169 -357 168 -352 b 171 -291 167 -329 168 -310 b 185 -226 174 -269 178 -247 b 181 -253 188 -234 184 -244 z m 289 -365 b 257 -395 280 -378 270 -390 b 218 -388 244 -401 228 -399 b 207 -359 212 -380 209 -369 b 228 -193 198 -303 210 -245 b 316 -20 250 -130 279 -72 b 333 -197 323 -79 333 -137 b 289 -365 332 -256 321 -318 z m 334 68 b 331 75 332 69 332 72 b 324 223 327 124 324 173 b 331 260 324 236 324 250 b 339 70 329 197 332 133 b 334 68 339 67 336 66 z m 357 -128 b 353 -116 354 -125 353 -120 b 339 11 348 -74 344 -31 b 344 18 339 15 341 20 b 345 15 345 17 345 16 b 359 -116 350 -29 355 -73 b 357 -128 359 -121 359 -126 z m 365 130 b 363 196 364 152 363 174 b 366 221 362 204 362 214 b 371 108 369 183 370 146 b 365 130 366 113 365 122 z m 376 -1 b 371 60 374 19 373 40 b 377 47 375 58 376 52 b 380 9 378 34 379 22 b 383 -38 381 -7 382 -23 b 376 -1 378 -27 377 -14 z m 398 157 b 399 221 398 179 398 200 b 404 155 403 200 404 177 b 403 151 404 153 404 152 b 398 157 401 148 398 154 z m 406 15 b 402 87 404 39 405 63 b 402 99 402 91 401 95 b 407 82 406 94 406 88 b 411 16 408 60 409 38 b 413 -39 412 -2 412 -21 b 406 15 409 -21 407 -3 z m 415 169 b 414 172 414 169 414 170 b 414 207 413 183 413 195 b 420 175 420 198 420 186 b 419 169 420 173 420 171 b 415 169 418 168 416 167 z m 426 -56 b 423 -12 425 -41 424 -27 b 419 78 421 18 420 48 b 417 113 418 90 417 101 b 418 118 417 115 417 117 b 421 119 418 120 420 120 b 422 117 422 118 422 117 b 424 70 423 101 424 85 b 429 -45 427 31 429 -7 b 426 -56 429 -49 429 -54 z "},"z":{"ha":467,"x_min":0,"x_max":0,"o":"m 368 163 b 381 196 365 175 373 186 b 507 352 423 248 465 300 b 489 360 505 359 496 362 b 471 346 482 358 476 352 b 354 202 430 300 391 252 b 321 244 345 217 335 232 b 272 257 308 255 289 262 b 234 227 257 253 245 239 b 176 157 215 203 195 180 b 281 358 211 224 246 291 b 293 394 287 369 294 381 b 284 422 293 404 289 414 b 136 486 254 471 192 493 b -12 409 80 479 29 447 b -30 374 -22 400 -32 388 b -20 356 -29 367 -25 361 b 71 354 3 334 42 340 b 161 387 100 367 129 387 b 96 159 129 315 107 237 b 96 108 94 142 92 124 b 128 71 100 91 112 76 b 178 87 146 65 165 74 b 208 135 191 101 199 118 b 271 219 225 165 246 194 b 245 45 277 159 281 93 b 132 -115 205 -7 168 -60 b 14 -393 77 -200 26 -292 b 35 -486 11 -426 13 -462 b 152 -497 64 -516 114 -512 b 333 -323 232 -466 294 -400 b 397 -75 373 -247 390 -161 b 398 5 399 -49 400 -22 b 368 163 395 59 382 111 z m 263 342 b 213 250 248 310 231 280 b 207 240 213 246 210 242 b 212 251 205 244 208 249 b 214 259 211 254 213 256 b 264 356 231 291 247 323 b 263 342 267 352 265 346 z m 252 362 b 253 355 255 361 254 357 b 240 328 249 346 244 337 b 226 310 236 322 233 314 b 252 362 233 328 241 346 z m 184 292 b 212 353 193 313 203 333 b 215 351 214 353 215 352 b 214 347 215 349 215 348 b 182 280 204 324 194 301 b 184 292 180 284 182 288 z m 118 160 b 117 176 115 165 116 171 b 174 347 128 235 147 293 b 176 341 176 346 177 343 b 118 160 151 283 131 222 z m 134 138 b 136 153 135 143 136 148 l 138 153 b 140 160 137 155 137 159 b 134 138 141 152 139 145 z m 155 127 b 149 125 154 124 150 123 b 152 134 150 128 152 131 l 152 135 b 155 127 154 132 155 130 z m 164 136 b 165 146 164 139 165 142 b 168 150 165 148 166 151 l 169 151 b 171 157 167 153 168 156 b 164 136 171 150 168 142 z m 34 -458 b 27 -435 28 -452 25 -443 b 32 -440 29 -435 31 -438 b 34 -458 35 -445 35 -452 z m 265 -26 b 225 -345 262 -134 258 -243 b 179 -423 215 -374 203 -404 b 124 -446 164 -436 144 -443 b 87 -444 111 -449 98 -449 b 60 -391 68 -434 61 -412 b 75 -302 58 -361 66 -331 b 192 -81 103 -223 147 -151 b 267 35 217 -42 242 -3 b 265 -26 267 15 266 -6 z m 332 -27 b 336 -43 334 -32 335 -37 l 334 -44 b 332 -27 330 -40 329 -32 z m 298 -87 b 293 -115 298 -97 298 -107 b 291 -106 291 -113 291 -109 b 294 -9 292 -73 293 -41 b 299 -18 298 -10 299 -14 b 298 -87 299 -41 299 -64 z m 325 -331 b 299 -371 320 -346 311 -360 b 323 -330 305 -356 313 -342 b 349 -271 332 -310 340 -290 b 356 -262 350 -267 352 -263 b 325 -331 349 -286 338 -310 z m 370 -48 b 368 -53 370 -50 370 -52 b 364 -53 367 -54 365 -54 b 364 -51 364 -52 364 -51 b 367 -16 365 -39 366 -27 b 370 -48 372 -25 371 -37 z m 384 -86 b 381 -75 381 -83 381 -79 b 381 -20 381 -57 381 -39 b 384 -86 388 -41 389 -64 z "},"{":{"ha":292,"x_min":0,"x_max":0,"o":"m 119 735 b 114 674 117 712 117 692 b 91 580 109 641 105 608 b 50 527 80 558 64 544 b 45 459 32 504 30 484 b 62 423 51 448 59 440 b 75 323 68 390 74 358 b 79 252 75 299 77 276 b 87 183 82 229 87 206 b 101 74 89 146 94 109 b 123 24 106 55 112 35 b 207 9 150 0 177 -8 b 252 65 227 20 238 45 b 241 108 261 79 254 101 b 212 160 223 116 213 131 b 203 235 210 185 205 210 b 189 405 198 292 195 349 b 160 487 186 436 179 466 b 159 522 147 501 147 504 b 194 628 178 551 188 589 b 207 791 201 681 205 736 b 217 889 208 825 213 857 b 235 928 219 904 223 922 b 237 949 246 933 245 940 b 231 958 235 952 233 955 b 175 965 213 981 190 984 b 132 854 152 936 138 898 b 119 735 127 816 123 777 z m 199 152 b 194 170 197 160 196 165 b 196 175 194 171 195 173 b 199 168 197 173 198 171 b 199 159 199 165 199 162 b 203 145 200 152 201 148 b 200 143 202 144 201 144 b 199 152 199 146 199 149 z m 114 172 b 101 325 109 227 101 276 b 103 337 101 329 103 333 b 105 325 104 333 105 329 b 114 253 108 301 111 277 b 127 153 118 220 123 186 b 128 106 128 138 127 122 b 125 102 128 105 126 103 b 123 107 125 103 124 105 b 119 121 122 112 119 116 b 114 172 117 138 116 155 z m 190 266 b 194 217 193 248 194 233 b 192 209 194 215 193 212 b 190 215 191 211 190 213 b 181 347 187 259 184 303 b 184 356 181 350 183 353 b 185 347 184 353 185 350 b 190 266 187 320 188 293 z m 168 327 b 169 349 168 339 169 344 b 172 337 170 345 172 341 b 176 280 174 318 175 299 b 175 271 177 277 176 274 b 172 280 174 274 173 277 b 168 327 163 294 169 311 z m 145 287 b 142 271 144 277 143 274 b 137 327 134 288 137 308 b 140 329 137 328 139 328 b 141 323 140 327 141 325 b 145 287 142 311 144 299 z m 128 637 b 128 650 128 646 127 648 b 131 653 128 651 130 652 b 132 634 131 646 133 640 b 126 608 131 625 128 616 b 123 610 125 609 123 610 b 128 637 125 619 126 628 z m 174 917 b 161 890 169 906 165 898 b 159 894 161 891 159 893 b 171 925 163 904 167 915 b 176 925 172 926 175 925 b 174 917 176 922 175 919 z m 189 139 b 188 135 189 138 188 136 b 189 139 187 139 188 139 z "},"}":{"ha":292,"x_min":0,"x_max":0,"o":"m 172 735 b 158 854 167 777 164 816 b 115 965 152 898 138 936 b 60 958 101 984 78 981 b 53 949 57 955 56 952 b 56 928 46 940 45 933 b 74 889 68 922 72 904 b 84 791 78 857 83 825 b 97 628 85 736 90 681 b 132 522 102 589 113 551 b 131 487 144 504 144 501 b 101 405 112 466 105 436 b 87 235 95 349 92 292 b 79 160 85 210 80 185 b 50 108 77 131 67 116 b 39 65 36 101 30 79 b 83 9 53 45 64 20 b 167 24 114 -8 141 0 b 189 74 179 35 185 55 b 203 183 197 109 202 146 b 211 252 204 206 209 229 b 216 323 213 276 216 299 b 229 423 217 358 222 390 b 246 459 232 440 239 448 b 241 527 261 484 259 504 b 200 580 227 544 211 558 b 177 674 186 608 181 641 b 172 735 174 692 173 712 z m 92 152 b 91 143 92 149 91 146 b 88 145 90 144 89 144 b 92 159 89 148 91 152 b 92 168 92 162 92 165 b 95 175 92 170 94 173 b 96 170 95 173 97 171 b 92 152 95 165 93 160 z m 176 172 b 172 121 175 155 174 138 b 167 107 171 116 169 112 b 165 102 167 105 166 103 b 163 106 165 103 163 105 b 164 153 163 122 162 138 b 176 253 167 186 172 220 b 185 325 179 277 182 301 b 187 337 186 329 187 333 b 190 325 188 333 190 329 b 176 172 189 276 182 227 z m 101 266 b 105 347 102 293 104 320 b 107 356 106 350 106 353 b 110 347 108 353 110 350 b 101 215 107 303 104 259 b 99 209 101 213 99 211 b 97 217 98 212 96 215 b 101 266 97 233 98 248 z m 123 327 b 119 280 121 311 127 294 b 116 271 117 277 117 274 b 114 280 115 274 114 277 b 119 337 116 299 117 318 b 122 349 119 341 121 345 b 123 327 122 344 123 339 z m 145 287 b 150 323 147 299 148 311 b 151 329 150 325 151 327 b 154 327 152 328 154 328 b 148 271 154 308 156 288 b 145 287 147 274 146 277 z m 163 637 b 167 610 164 628 166 619 b 164 608 167 610 165 609 b 159 634 162 616 160 625 b 160 653 158 640 160 646 b 163 650 161 652 163 651 b 163 637 163 648 163 646 z m 116 917 b 114 925 116 919 115 922 b 119 925 116 925 119 926 b 132 894 124 915 128 904 b 129 890 132 893 130 891 b 116 917 126 898 122 906 z m 103 135 b 101 139 102 136 102 138 b 103 135 103 139 104 139 z "},"~":{"ha":454,"x_min":0,"x_max":0,"o":"m 35 285 b 48 222 35 261 40 242 b 104 168 59 195 79 178 b 171 163 127 159 148 158 b 214 178 186 167 202 169 b 265 253 240 196 256 223 b 288 336 274 281 280 309 b 303 369 292 348 297 359 b 318 379 305 373 313 376 b 324 363 320 374 323 369 b 328 329 326 352 328 341 b 337 281 329 312 331 297 b 403 249 348 253 376 238 b 409 255 405 250 408 252 b 418 303 413 271 418 287 b 410 346 418 317 413 332 b 382 399 405 366 397 387 b 322 430 365 414 346 425 b 272 424 303 434 286 435 b 235 385 257 414 241 401 b 207 287 222 354 216 320 b 168 217 200 260 191 235 b 150 218 161 211 155 211 b 143 228 147 221 145 225 b 117 337 123 262 122 300 b 116 375 115 350 117 363 b 106 393 116 383 114 389 b 48 372 76 410 60 403 b 35 285 38 344 33 316 z m 214 262 b 217 270 216 265 217 267 b 220 269 218 270 219 270 b 218 262 219 267 219 264 b 211 242 215 255 219 247 b 208 241 210 241 209 241 b 214 262 210 248 212 255 z m 252 386 b 260 385 256 387 258 386 b 255 381 259 384 257 382 b 248 377 253 379 250 378 b 252 386 249 380 250 383 z m 69 375 b 67 382 68 377 68 380 b 76 382 70 382 73 382 b 69 375 72 378 71 377 z "},"":{"ha":333,"x_min":0,"x_max":0,"o":""},"":{"ha":0,"x_min":0,"x_max":0,"o":""}}}
